<svg xmlns="http://www.w3.org/2000/svg" xmlns:xlink="http://www.w3.org/1999/xlink" width="246" height="198" viewBox="0 0 246 198">
  <defs>
    <filter id="Rectángulo_37255" x="0" y="0" width="246" height="198" filterUnits="userSpaceOnUse">
      <feOffset dy="3" input="SourceAlpha"/>
      <feGaussianBlur stdDeviation="3" result="blur"/>
      <feFlood flood-opacity="0.161"/>
      <feComposite operator="in" in2="blur"/>
      <feComposite in="SourceGraphic"/>
    </filter>
  </defs>
  <g id="Grupo_143199" data-name="Grupo 143199" transform="translate(-1037 -3248)">
    <g transform="matrix(1, 0, 0, 1, 1037, 3248)" filter="url(#Rectángulo_37255)">
      <rect id="Rectángulo_37255-2" data-name="Rectángulo 37255" width="228" height="180" rx="10" transform="translate(9 6)" fill="#fff"/>
    </g>
    <path id="Trazado_183727" data-name="Trazado 183727" d="M47.035,10.836H45.168V15H42.824V3.625h4.227a4.778,4.778,0,0,1,3.109.9,3.1,3.1,0,0,1,1.094,2.539A3.5,3.5,0,0,1,50.75,9a3.437,3.437,0,0,1-1.527,1.238l2.461,4.648V15H49.168Zm-1.867-1.9h1.891a1.936,1.936,0,0,0,1.367-.449A1.606,1.606,0,0,0,48.91,7.25a1.719,1.719,0,0,0-.457-1.266,1.9,1.9,0,0,0-1.4-.461H45.168Zm11.609,6.219a4.15,4.15,0,0,1-3.027-1.141,4.054,4.054,0,0,1-1.168-3.039v-.219a5.106,5.106,0,0,1,.492-2.277,3.612,3.612,0,0,1,1.395-1.547,3.914,3.914,0,0,1,2.059-.543,3.508,3.508,0,0,1,2.73,1.094,4.444,4.444,0,0,1,1,3.1v.922H54.871a2.1,2.1,0,0,0,.66,1.328,2,2,0,0,0,1.395.5,2.437,2.437,0,0,0,2.039-.945l1.109,1.242A3.389,3.389,0,0,1,58.7,14.754,4.511,4.511,0,0,1,56.777,15.156ZM56.52,8.211a1.411,1.411,0,0,0-1.09.455,2.357,2.357,0,0,0-.535,1.3h3.141V9.788a1.681,1.681,0,0,0-.406-1.165A1.456,1.456,0,0,0,56.52,8.211Zm9.594,4.453a.727.727,0,0,0-.41-.652,4.659,4.659,0,0,0-1.316-.426q-3.016-.633-3.016-2.562A2.323,2.323,0,0,1,62.3,7.145a3.766,3.766,0,0,1,2.441-.754,4.053,4.053,0,0,1,2.574.758,2.388,2.388,0,0,1,.965,1.969H66.027a1.092,1.092,0,0,0-.312-.8A1.322,1.322,0,0,0,64.738,8a1.351,1.351,0,0,0-.883.258.814.814,0,0,0-.312.656.7.7,0,0,0,.355.605,3.657,3.657,0,0,0,1.2.4,9.8,9.8,0,0,1,1.422.379,2.336,2.336,0,0,1,1.789,2.273,2.2,2.2,0,0,1-.992,1.871,4.28,4.28,0,0,1-2.562.715,4.47,4.47,0,0,1-1.887-.379,3.166,3.166,0,0,1-1.293-1.039,2.414,2.414,0,0,1-.469-1.426h2.141a1.179,1.179,0,0,0,.445.922,1.766,1.766,0,0,0,1.109.32,1.635,1.635,0,0,0,.98-.246A.766.766,0,0,0,66.113,12.664Zm6.352-8.2V6.547H73.91V8.2H72.465v4.219a1.007,1.007,0,0,0,.18.672.9.9,0,0,0,.688.2A3.6,3.6,0,0,0,74,13.242v1.711a4.648,4.648,0,0,1-1.367.2,2.156,2.156,0,0,1-2.422-2.4V8.2H68.973V6.547h1.234V4.469Zm7.453,4.2a6.134,6.134,0,0,0-.812-.062,1.654,1.654,0,0,0-1.68.867V15H75.168V6.547H77.3l.063,1.008a2.092,2.092,0,0,1,1.883-1.164,2.366,2.366,0,0,1,.7.1ZM83.387,15H81.121V6.547h2.266Zm-2.4-10.641a1.112,1.112,0,0,1,.34-.836,1.465,1.465,0,0,1,1.848,0,1.105,1.105,0,0,1,.344.836,1.108,1.108,0,0,1-.348.844,1.448,1.448,0,0,1-1.836,0A1.108,1.108,0,0,1,80.988,4.359Zm7.773,8.977a1.481,1.481,0,0,0,1.016-.344,1.2,1.2,0,0,0,.406-.914H92.3a2.9,2.9,0,0,1-.469,1.574,3.093,3.093,0,0,1-1.262,1.109,3.949,3.949,0,0,1-1.77.395A3.67,3.67,0,0,1,85.941,14a4.56,4.56,0,0,1-1.047-3.184v-.148a4.508,4.508,0,0,1,1.039-3.117,3.627,3.627,0,0,1,2.852-1.164,3.555,3.555,0,0,1,2.543.9A3.2,3.2,0,0,1,92.3,9.7H90.184a1.551,1.551,0,0,0-.406-1.072,1.51,1.51,0,0,0-2.223.163,3.333,3.333,0,0,0-.4,1.866v.235a3.375,3.375,0,0,0,.4,1.878A1.377,1.377,0,0,0,88.762,13.336Zm8.344,0a1.481,1.481,0,0,0,1.016-.344,1.2,1.2,0,0,0,.406-.914h2.117a2.9,2.9,0,0,1-.469,1.574,3.093,3.093,0,0,1-1.262,1.109,3.949,3.949,0,0,1-1.77.395A3.67,3.67,0,0,1,94.285,14a4.56,4.56,0,0,1-1.047-3.184v-.148a4.508,4.508,0,0,1,1.039-3.117,3.627,3.627,0,0,1,2.852-1.164,3.555,3.555,0,0,1,2.543.9,3.2,3.2,0,0,1,.973,2.4H98.527a1.551,1.551,0,0,0-.406-1.072,1.51,1.51,0,0,0-2.223.163,3.333,3.333,0,0,0-.4,1.866v.235a3.375,3.375,0,0,0,.4,1.878A1.377,1.377,0,0,0,97.105,13.336ZM104.316,15h-2.266V6.547h2.266Zm-2.4-10.641a1.112,1.112,0,0,1,.34-.836,1.465,1.465,0,0,1,1.848,0,1.105,1.105,0,0,1,.344.836,1.108,1.108,0,0,1-.348.844,1.448,1.448,0,0,1-1.836,0A1.108,1.108,0,0,1,101.918,4.359Zm3.906,6.336a5.013,5.013,0,0,1,.484-2.242A3.546,3.546,0,0,1,107.7,6.93a4.069,4.069,0,0,1,2.113-.539,3.849,3.849,0,0,1,2.793,1.047,4.2,4.2,0,0,1,1.207,2.844l.016.578a4.418,4.418,0,0,1-1.086,3.121,4.209,4.209,0,0,1-5.832,0,4.5,4.5,0,0,1-1.09-3.187Zm2.258.16a3.16,3.16,0,0,0,.453,1.843,1.628,1.628,0,0,0,2.578.008,3.457,3.457,0,0,0,.461-2.015,3.128,3.128,0,0,0-.461-1.831,1.5,1.5,0,0,0-1.3-.649,1.474,1.474,0,0,0-1.281.646A3.516,3.516,0,0,0,108.082,10.856ZM117.3,6.547l.07.977a2.951,2.951,0,0,1,2.43-1.133,2.453,2.453,0,0,1,2,.789,3.682,3.682,0,0,1,.672,2.359V15h-2.258V9.581a1.47,1.47,0,0,0-.312-1.045,1.4,1.4,0,0,0-1.039-.325,1.553,1.553,0,0,0-1.43.814V15h-2.258V6.547Zm10.773,8.609a4.15,4.15,0,0,1-3.027-1.141,4.054,4.054,0,0,1-1.168-3.039v-.219a5.106,5.106,0,0,1,.492-2.277,3.612,3.612,0,0,1,1.395-1.547,3.914,3.914,0,0,1,2.059-.543,3.508,3.508,0,0,1,2.73,1.094,4.444,4.444,0,0,1,1,3.1v.922h-5.383a2.1,2.1,0,0,0,.66,1.328,2,2,0,0,0,1.395.5,2.437,2.437,0,0,0,2.039-.945l1.109,1.242A3.389,3.389,0,0,1,130,14.754,4.511,4.511,0,0,1,128.074,15.156Zm-.258-6.945a1.411,1.411,0,0,0-1.09.455,2.357,2.357,0,0,0-.535,1.3h3.141V9.788a1.681,1.681,0,0,0-.406-1.165A1.456,1.456,0,0,0,127.816,8.211Zm9.594,4.453a.727.727,0,0,0-.41-.652,4.659,4.659,0,0,0-1.316-.426q-3.016-.633-3.016-2.562a2.323,2.323,0,0,1,.934-1.879,3.766,3.766,0,0,1,2.441-.754,4.053,4.053,0,0,1,2.574.758,2.388,2.388,0,0,1,.965,1.969h-2.258a1.092,1.092,0,0,0-.312-.8A1.322,1.322,0,0,0,136.035,8a1.351,1.351,0,0,0-.883.258.814.814,0,0,0-.312.656.7.7,0,0,0,.355.605,3.657,3.657,0,0,0,1.2.4,9.8,9.8,0,0,1,1.422.379,2.336,2.336,0,0,1,1.789,2.273,2.205,2.205,0,0,1-.992,1.871,4.28,4.28,0,0,1-2.562.715,4.47,4.47,0,0,1-1.887-.379,3.166,3.166,0,0,1-1.293-1.039,2.414,2.414,0,0,1-.469-1.426h2.141a1.179,1.179,0,0,0,.445.922,1.766,1.766,0,0,0,1.109.32,1.635,1.635,0,0,0,.98-.246A.766.766,0,0,0,137.41,12.664Z" transform="translate(1069.176 3371)" fill="#12263f"/>
    <g id="Grupo_142441" data-name="Grupo 142441" transform="translate(129 -2557)">
      <circle id="Elipse_4870" data-name="Elipse 4870" cx="43" cy="43" r="43" transform="translate(988 5830)" fill="#0f1027"/>
    </g>
    <g id="Grupo_143049" data-name="Grupo 143049" transform="translate(5.829)">
      <g id="Grupo_143048" data-name="Grupo 143048" transform="translate(1123.171 3285.973)">
        <g id="LXDMXW" transform="translate(4.39 4.569)">
          <g id="Grupo_143047" data-name="Grupo 143047" transform="translate(0 0)">
            <path id="Trazado_183669" data-name="Trazado 183669" d="M-2740.689-1026.232c-1.035-1.833-1.944-3.221-3.948-3.894a98.48,98.48,0,0,1-9.278-3.882,8.417,8.417,0,0,1-2.248-1.769,2.033,2.033,0,0,1-.518-2.614,1.986,1.986,0,0,1,2.413-.891,16.008,16.008,0,0,1,3.095,1.156,34.454,34.454,0,0,1,8.181,5.85c1.45,1.379,3.13,1.087,5.112,1.052-1.024-1.7-1.664-3.267-3.606-3.772a34.8,34.8,0,0,1-10.062-4.284,10.32,10.32,0,0,1-1.938-1.636,2,2,0,0,1-.447-2.444,1.963,1.963,0,0,1,2.277-.979,10.349,10.349,0,0,1,2.521.8,32.612,32.612,0,0,1,8.7,6.058c1.516,1.474,3.227,1.3,5.321,1.232-.936-1.609-1.536-3.162-3.328-3.667a36.94,36.94,0,0,1-10.451-4.5,6.836,6.836,0,0,1-2.049-1.967,2.346,2.346,0,0,1-.1-2.031,2.278,2.278,0,0,1,1.8-.929,6.981,6.981,0,0,1,3.143.918,80.15,80.15,0,0,1,8.237,5.768,6.68,6.68,0,0,0,5.218,1.381,5.048,5.048,0,0,0-2.856-3.628,36.06,36.06,0,0,1-10.834-4.7,6.981,6.981,0,0,1-1.927-1.938,1.77,1.77,0,0,1,1.541-2.825,8.344,8.344,0,0,1,3.176.794,30.789,30.789,0,0,1,8.615,5.982c1.542,1.495,3.285,1.37,5.394,1.292-.987-1.662-1.632-3.234-3.547-3.766a32.554,32.554,0,0,1-10.689-4.722,5.011,5.011,0,0,1-1.6-1.639,2.519,2.519,0,0,1-.109-2.036,2.3,2.3,0,0,1,1.8-.94,8.542,8.542,0,0,1,3.058.851,33.354,33.354,0,0,1,8.68,6.09c1.511,1.439,3.2,1.137,5.016.95-3.859-5.834-9.3-9.573-15.891-11.91a2.171,2.171,0,0,1,2.777-.929,29.326,29.326,0,0,1,4.8,2.224,35.065,35.065,0,0,1,8.176,6.747,12.1,12.1,0,0,1,1.76,2.536c.94,1.877.123,3.284-1.966,3.56-.472.062-.951.071-1.5.109.588,1.2,1.548,2.347.812,3.714-.748,1.389-2.247,1.174-3.559,1.327,1.715,2.937,1.593,4.83-2.795,5.063.575,1.18,1.538,2.33.769,3.689-.752,1.329-2.177,1.183-3.557,1.268.528,1.219,1.536,2.36.8,3.722-.75,1.38-2.228,1.19-3.532,1.318,1.663,3.892,1.136,4.828-2.855,5.011.545,1.193,1.552,2.333.826,3.7-.75,1.411-2.225,1.23-3.6,1.323.288.589.6,1.124.819,1.7.625,1.656-.052,2.909-1.808,3.167a9.151,9.151,0,0,1-2.86-.024,34.2,34.2,0,0,1-14.3-5.648c-1.532-1.1-1.887-2.065-1.338-3.533a30.085,30.085,0,0,0,18.447,7.182c-.743-1.629-1.375-3.182-3.3-3.719a31.849,31.849,0,0,1-11.04-5,5.2,5.2,0,0,1-1.319-1.464,1.816,1.816,0,0,1,1.7-2.882,10.391,10.391,0,0,1,3.563,1.065,33.781,33.781,0,0,1,8.271,5.9c1.486,1.417,3.185,1.149,5.21,1.116-1.052-1.687-1.695-3.23-3.637-3.774a31.432,31.432,0,0,1-11.031-5.019,6.418,6.418,0,0,1-1.09-1.09,1.962,1.962,0,0,1-.306-2.273,1.739,1.739,0,0,1,2.064-.952,22.289,22.289,0,0,1,5.166,2.143c2.438,1.578,4.624,3.541,6.964,5.278C-2743.99-1025.887-2742.462-1026.114-2740.689-1026.232Zm-12.177,3.118c-2.254-1.728-4.506-3.459-7.381-4.067C-2758.187-1025.1-2755.555-1024.059-2752.867-1023.114Zm16.7-30.16c-2.251-1.727-4.507-3.461-7.579-4.246C-2742.425-1055.957-2740.272-1054.753-2736.17-1053.274Zm-21.3,21.065a17.965,17.965,0,0,0,7.309,4.007C-2752.41-1029.878-2754.61-1031.642-2757.47-1032.21Zm5.632-10.026a18.347,18.347,0,0,0,7.184,3.967A18.789,18.789,0,0,0-2751.838-1042.236Zm4.394,9.039c-1.99-1.953-5.888-4.051-7.378-3.953A22.3,22.3,0,0,0-2747.444-1033.2Zm1.178-19.145c1.059,1.4,5.1,3.6,7.5,4.1C-2741.256-1050.022-2743.479-1051.659-2746.266-1052.342Zm-2.807,5.076a18.975,18.975,0,0,0,7.2,3.985A17.816,17.816,0,0,0-2749.073-1047.266Z" transform="translate(2765.199 1064.525)" fill="#fff"/>
          </g>
        </g>
        <line id="Línea_2504" data-name="Línea 2504" x1="61.517" transform="translate(0 46.539)" fill="none" stroke="#fff" stroke-miterlimit="10" stroke-width="3"/>
        <line id="Línea_2505" data-name="Línea 2505" y1="43.33" x2="42.795" transform="translate(0.535)" fill="none" stroke="#af0f3f" stroke-miterlimit="10" stroke-width="3"/>
        <path id="Trazado_183670" data-name="Trazado 183670" d="M-2625.379-1050.392s21.932,8.024,15.513,30.491" transform="translate(2669.244 1058.951)" fill="none" stroke="#fff" stroke-miterlimit="10" stroke-width="3"/>
      </g>
      <path id="Trazado_183671" data-name="Trazado 183671" d="M7.569,4.37,0,0V8.74Z" transform="translate(1168.218 3300.335) rotate(-150)" fill="#fff"/>
    </g>
  </g>
</svg>
