<svg xmlns="http://www.w3.org/2000/svg" width="268.5" height="58.399" viewBox="0 0 268.5 58.399">
  <g id="Grupo_142363" data-name="Grupo 142363" transform="translate(-230.5 -1714.863)">
    <rect id="Rect치ngulo_37703" data-name="Rect치ngulo 37703" width="267.377" height="58.399" rx="10" transform="translate(231.623 1714.863)" fill="#0f1027"/>
    <g id="Rect치ngulo_37706" data-name="Rect치ngulo 37706" transform="translate(230.5 1714.863)" fill="#fff" stroke="#afafaf" stroke-width="1">
      <rect width="55.03" height="58.399" rx="10" stroke="none"/>
      <rect x="0.5" y="0.5" width="54.03" height="57.399" rx="9.5" fill="none"/>
    </g>
    <path id="Trazado_183720" data-name="Trazado 183720" d="M5.84-6.338a8.817,8.817,0,0,1-3.511-1.7,3.256,3.256,0,0,1-1.1-2.5,3.439,3.439,0,0,1,1.343-2.778,5.337,5.337,0,0,1,3.491-1.1,5.825,5.825,0,0,1,2.612.566,4.3,4.3,0,0,1,1.777,1.563,4,4,0,0,1,.63,2.178H9.2a2.6,2.6,0,0,0-.82-2.034,3.336,3.336,0,0,0-2.314-.74,3.415,3.415,0,0,0-2.163.611,2.04,2.04,0,0,0-.776,1.7A1.835,1.835,0,0,0,3.862-9.1,7.232,7.232,0,0,0,6.372-8,11.645,11.645,0,0,1,9.146-6.9,4.209,4.209,0,0,1,10.63-5.5a3.577,3.577,0,0,1,.483,1.885A3.322,3.322,0,0,1,9.766-.845,5.746,5.746,0,0,1,6.162.2,6.683,6.683,0,0,1,3.428-.366,4.6,4.6,0,0,1,1.47-1.9,3.754,3.754,0,0,1,.781-4.121H2.666a2.449,2.449,0,0,0,.952,2.036,4.009,4.009,0,0,0,2.544.747,3.685,3.685,0,0,0,2.275-.605,1.967,1.967,0,0,0,.791-1.65A1.931,1.931,0,0,0,8.5-5.21,8.444,8.444,0,0,0,5.84-6.338ZM15.2,0H13.389V-10.566H15.2ZM13.242-13.369a1.078,1.078,0,0,1,.269-.742,1.008,1.008,0,0,1,.8-.3,1.024,1.024,0,0,1,.8.3,1.067,1.067,0,0,1,.273.742,1.032,1.032,0,0,1-.273.732,1.043,1.043,0,0,1-.8.293,1.026,1.026,0,0,1-.8-.293A1.043,1.043,0,0,1,13.242-13.369Zm6.543,2.8.049,1.172a3.9,3.9,0,0,1,3.135-1.367,3.021,3.021,0,0,1,3.018,1.7,4,4,0,0,1,1.372-1.23,4.052,4.052,0,0,1,2-.469q3.477,0,3.535,3.682V0H31.084V-6.973a2.426,2.426,0,0,0-.518-1.694,2.279,2.279,0,0,0-1.738-.562,2.4,2.4,0,0,0-1.67.6,2.436,2.436,0,0,0-.771,1.616V0H24.57V-6.924a2.016,2.016,0,0,0-2.256-2.3,2.417,2.417,0,0,0-2.432,1.514V0H18.076V-10.566ZM42.139-1.045A3.837,3.837,0,0,1,39.043.2,3.285,3.285,0,0,1,36.47-.786a4.248,4.248,0,0,1-.894-2.905v-6.875h1.807V-3.74q0,2.4,1.953,2.4A2.7,2.7,0,0,0,42.09-2.881v-7.686H43.9V0H42.178ZM48.6,0H46.8V-15H48.6Zm9.414,0a3.8,3.8,0,0,1-.254-1.113A4.031,4.031,0,0,1,54.756.2a3.73,3.73,0,0,1-2.563-.884,2.859,2.859,0,0,1-1-2.241,2.987,2.987,0,0,1,1.255-2.563,5.916,5.916,0,0,1,3.53-.913h1.758v-.83a2.029,2.029,0,0,0-.566-1.509,2.276,2.276,0,0,0-1.67-.562,2.634,2.634,0,0,0-1.621.488,1.439,1.439,0,0,0-.654,1.182H51.406a2.493,2.493,0,0,1,.562-1.528,3.832,3.832,0,0,1,1.523-1.167,5.125,5.125,0,0,1,2.114-.43,4.177,4.177,0,0,1,2.861.913,3.294,3.294,0,0,1,1.074,2.515v4.863a5.946,5.946,0,0,0,.371,2.314V0Zm-3-1.377a3.175,3.175,0,0,0,1.611-.439,2.658,2.658,0,0,0,1.1-1.143V-5.127H56.318Q53-5.127,53-3.184a1.645,1.645,0,0,0,.566,1.328A2.177,2.177,0,0,0,55.02-1.377ZM67.48-8.945a5.414,5.414,0,0,0-.889-.068A2.381,2.381,0,0,0,64.18-7.5V0H62.373V-10.566h1.758l.029,1.221a2.813,2.813,0,0,1,2.52-1.416,1.846,1.846,0,0,1,.8.137Z" transform="translate(354.13 1752.955)" fill="#fff"/>
    <g id="_8k9e7V" data-name="8k9e7V" transform="translate(618.889 1726.345)">
      <g id="Grupo_142362" data-name="Grupo 142362" transform="translate(-382.44 -2.119)">
        <path id="Trazado_174756" data-name="Trazado 174756" d="M-375.7,43.731v1.908l-1.388.062V64.949h32.426V45.72l-1.4-.093V43.744c.846,0,1.689-.052,2.522.017.645.053.868.538.864,1.163-.013,1.8,0,3.607,0,5.41,0,5.281.01,10.562-.014,15.843a1.316,1.316,0,0,0,.655,1.262c.775.507,1.482,1.117,2.26,1.619.51.33.6.791.3,1.166a4.424,4.424,0,0,1-1.57,1.373,6.86,6.86,0,0,1-2.555.476q-17.273.044-34.546,0a9.786,9.786,0,0,1-2.775-.552,2.615,2.615,0,0,1-1.137-.877c-.584-.722-.483-1.154.265-1.7.706-.518,1.395-1.062,2.126-1.541a1.193,1.193,0,0,0,.58-1.142q-.024-10.472-.011-20.944c0-1.336.243-1.579,1.567-1.58Zm34.243,25.706.057-.174c-.937-.749-1.864-1.51-2.82-2.234a1.2,1.2,0,0,0-.669-.105q-16-.007-32,0a1.192,1.192,0,0,0-.668.111c-.95.724-1.871,1.485-2.8,2.234l.062.168h.9c4.019,0,8.039,0,12.058.011.269,0,.691.079.777.253a1.288,1.288,0,0,0,1.2.684c.154.015.308.02.463.02,2.68,0,5.359.024,8.038-.02a2.022,2.022,0,0,0,1.445-.47,1.078,1.078,0,0,1,1.077-.481q5.99,0,11.981,0Z" transform="translate(382.44 -36.638)" fill="#0f1027"/>
        <path id="Trazado_174757" data-name="Trazado 174757" d="M-275.527,70.221c-1.779-1.028-3.423-1.966-5.049-2.935a.757.757,0,0,1-.273-.562c-.02-1.849-.012-3.7-.012-5.7.427.235.776.42,1.117.617,1.247.717,2.5,1.423,3.728,2.171a1.014,1.014,0,0,1,.468.68C-275.51,66.344-275.527,68.193-275.527,70.221Z" transform="translate(296.567 -51.265)" fill="#0f1027"/>
        <path id="Trazado_174758" data-name="Trazado 174758" d="M-234.343,60.861c0,2.039.009,3.91-.014,5.78a.749.749,0,0,1-.319.536c-1.608.954-3.233,1.88-5,2.9V67.764c0-1.1-.014-2.21.012-3.314a.876.876,0,0,1,.265-.647C-237.777,62.828-236.129,61.892-234.343,60.861Z" transform="translate(261.753 -51.124)" fill="#0f1027"/>
        <path id="Trazado_174759" data-name="Trazado 174759" d="M-266.744,38.686c-1.724,1-3.342,1.943-4.978,2.857a.829.829,0,0,1-.689,0c-1.635-.916-3.253-1.863-4.964-2.854,1.738-1,3.4-1.972,5.072-2.914a.681.681,0,0,1,.561.041C-270.11,36.735-268.49,37.678-266.744,38.686Z" transform="translate(293.618 -29.877)" fill="#0f1027"/>
        <path id="Trazado_174760" data-name="Trazado 174760" d="M-253.61,3.817c-1.09-.287-1.467-.766-1.6-1.629a27.836,27.836,0,0,0-.82-3.132h-.434c-.282,1.043-.6,2.078-.835,3.133-.242,1.1-.2,1.108-1.367,1.575a13.946,13.946,0,0,1,1.174-4.847,2.143,2.143,0,0,1,1.22-1.009c.651-.157,1.106.426,1.284,1C-254.5.469-254.1,2.054-253.61,3.817Z" transform="translate(277.798 2.119)" fill="#0f1027"/>
        <path id="Trazado_174761" data-name="Trazado 174761" d="M-309.326,39.909c-1.126-1.075-2.157-2.033-3.151-3.028a2.967,2.967,0,0,1-.607-.974,1.079,1.079,0,0,1,.995-1.633,6.42,6.42,0,0,1,1.976.216c1.128.308,2.226.728,3.4,1.123a1.729,1.729,0,0,1-2.153.446,14.1,14.1,0,0,0-3.1-.729,5.176,5.176,0,0,0,2.005,2.443A1.738,1.738,0,0,1-309.326,39.909Z" transform="translate(323.914 -28.641)" fill="#0f1027"/>
        <path id="Trazado_174762" data-name="Trazado 174762" d="M-209.46,35.078a27.2,27.2,0,0,0-3.116.867,1.7,1.7,0,0,1-2.062-.427,14.269,14.269,0,0,1,5.023-1.417c1.339-.024,1.934.98,1.1,2.044a28.33,28.33,0,0,1-3.461,3.485c-.221-.709-.351-1.278.315-1.789a18.562,18.562,0,0,0,1.887-1.811,3.965,3.965,0,0,0,.441-.681Z" transform="translate(240.581 -28.5)" fill="#0f1027"/>
        <path id="Trazado_174763" data-name="Trazado 174763" d="M-308.642,85.556a1.74,1.74,0,0,1-.608,1.973,27.514,27.514,0,0,0-2.259,2.225l.213.373c.965-.245,1.941-.455,2.892-.746,1.059-.324,1.049-.356,2.15.56-1.61.416-3.08.837-4.57,1.162-.6.132-1.384.09-1.583-.6a2.25,2.25,0,0,1,.3-1.626A14.31,14.31,0,0,1-308.642,85.556Z" transform="translate(323.279 -72.001)" fill="#0f1027"/>
        <path id="Trazado_174764" data-name="Trazado 174764" d="M-212.91,89.793a1.733,1.733,0,0,1,2.038-.449,21.362,21.362,0,0,0,2.856.776l.141-.221a3.405,3.405,0,0,0-.4-.67,14.115,14.115,0,0,0-1.757-1.719,1.7,1.7,0,0,1-.611-1.975,14.082,14.082,0,0,1,3.687,3.641c.612,1.052.1,1.926-1.124,1.928A13.291,13.291,0,0,1-212.91,89.793Z" transform="translate(239.12 -71.983)" fill="#0f1027"/>
        <path id="Trazado_174765" data-name="Trazado 174765" d="M-256.845,126.085a24.368,24.368,0,0,0,.747-2.777,1.7,1.7,0,0,1,1.4-1.593,11.978,11.978,0,0,1-1.282,4.867,1.178,1.178,0,0,1-2.252-.187c-.586-1.463-.921-3.026-1.4-4.664,1.171.279,1.331.471,1.517,1.261.243,1.037.545,2.06.822,3.089Z" transform="translate(278.62 -102.57)" fill="#0f1027"/>
      </g>
    </g>
  </g>
</svg>
