<svg xmlns="http://www.w3.org/2000/svg" width="268.5" height="58.399" viewBox="0 0 268.5 58.399">
  <g id="Grupo_142937" data-name="Grupo 142937" transform="translate(-1091.5 -1928.636)">
    <rect id="Rect치ngulo_41960" data-name="Rect치ngulo 41960" width="267.377" height="58.399" rx="10" transform="translate(1092.623 1928.636)" fill="#af0f3f"/>
    <g id="Rect치ngulo_41961" data-name="Rect치ngulo 41961" transform="translate(1091.5 1928.636)" fill="#fff" stroke="#afafaf" stroke-width="1">
      <rect width="55.03" height="58.399" rx="10" stroke="none"/>
      <rect x="0.5" y="0.5" width="54.03" height="57.399" rx="9.5" fill="none"/>
    </g>
    <path id="Trazado_183723" data-name="Trazado 183723" d="M9.5-3.721H3.545L2.207,0H.273L5.7-14.219H7.344L12.783,0H10.859ZM4.111-5.254H8.945L6.523-11.9ZM20.83-1.045A3.837,3.837,0,0,1,17.734.2a3.285,3.285,0,0,1-2.573-.981,4.248,4.248,0,0,1-.894-2.905v-6.875h1.807V-3.74q0,2.4,1.953,2.4a2.7,2.7,0,0,0,2.754-1.543v-7.686h1.807V0H20.869Zm6.953-12.08v2.559h1.973v1.4H27.783v6.561a1.467,1.467,0,0,0,.264.953,1.11,1.11,0,0,0,.9.318,4.374,4.374,0,0,0,.859-.117V0A5.268,5.268,0,0,1,28.418.2a2.25,2.25,0,0,1-1.826-.732,3.147,3.147,0,0,1-.615-2.08V-9.17H24.053v-1.4h1.924v-2.559Zm3.408,7.744a6.241,6.241,0,0,1,.61-2.793,4.553,4.553,0,0,1,1.7-1.914,4.626,4.626,0,0,1,2.485-.674,4.456,4.456,0,0,1,3.491,1.494,5.748,5.748,0,0,1,1.333,3.975v.127A6.3,6.3,0,0,1,40.22-2.4,4.486,4.486,0,0,1,38.53-.488,4.679,4.679,0,0,1,36.006.2,4.445,4.445,0,0,1,32.524-1.3a5.719,5.719,0,0,1-1.333-3.955Zm1.816.215a4.52,4.52,0,0,0,.815,2.822,2.61,2.61,0,0,0,2.183,1.064,2.594,2.594,0,0,0,2.188-1.079A4.943,4.943,0,0,0,39-5.381,4.513,4.513,0,0,0,38.179-8.2a2.623,2.623,0,0,0-2.192-1.079,2.594,2.594,0,0,0-2.158,1.064A4.906,4.906,0,0,0,33.008-5.166Zm11.768-5.4.049,1.172a3.9,3.9,0,0,1,3.135-1.367,3.021,3.021,0,0,1,3.018,1.7,4,4,0,0,1,1.372-1.23,4.052,4.052,0,0,1,2-.469q3.477,0,3.535,3.682V0H56.074V-6.973a2.426,2.426,0,0,0-.518-1.694,2.279,2.279,0,0,0-1.738-.562,2.4,2.4,0,0,0-1.67.6,2.436,2.436,0,0,0-.771,1.616V0H49.561V-6.924a2.016,2.016,0,0,0-2.256-2.3,2.417,2.417,0,0,0-2.432,1.514V0H43.066V-10.566ZM67.129,0a3.8,3.8,0,0,1-.254-1.113A4.031,4.031,0,0,1,63.867.2,3.73,3.73,0,0,1,61.3-.688a2.859,2.859,0,0,1-1-2.241,2.987,2.987,0,0,1,1.255-2.563,5.916,5.916,0,0,1,3.53-.913h1.758v-.83a2.029,2.029,0,0,0-.566-1.509,2.276,2.276,0,0,0-1.67-.562,2.634,2.634,0,0,0-1.621.488,1.439,1.439,0,0,0-.654,1.182H60.518a2.493,2.493,0,0,1,.562-1.528A3.832,3.832,0,0,1,62.6-10.332a5.125,5.125,0,0,1,2.114-.43,4.177,4.177,0,0,1,2.861.913,3.294,3.294,0,0,1,1.074,2.515v4.863a5.946,5.946,0,0,0,.371,2.314V0Zm-3-1.377a3.175,3.175,0,0,0,1.611-.439,2.658,2.658,0,0,0,1.1-1.143V-5.127H65.43q-3.32,0-3.32,1.943a1.645,1.645,0,0,0,.566,1.328A2.177,2.177,0,0,0,64.131-1.377Zm9.8-11.748v2.559h1.973v1.4H73.936v6.561a1.467,1.467,0,0,0,.264.953,1.11,1.11,0,0,0,.9.318,4.374,4.374,0,0,0,.859-.117V0A5.268,5.268,0,0,1,74.57.2a2.25,2.25,0,0,1-1.826-.732,3.147,3.147,0,0,1-.615-2.08V-9.17H70.205v-1.4h1.924v-2.559ZM79.98,0H78.174V-10.566H79.98ZM78.027-13.369a1.078,1.078,0,0,1,.269-.742,1.008,1.008,0,0,1,.8-.3,1.024,1.024,0,0,1,.8.3,1.067,1.067,0,0,1,.273.742,1.032,1.032,0,0,1-.273.732,1.043,1.043,0,0,1-.8.293,1.026,1.026,0,0,1-.8-.293A1.043,1.043,0,0,1,78.027-13.369ZM84.57-1.475h6.182V0H82.363V-1.328l5.83-7.744H82.451v-1.494h8.008v1.279ZM99.307,0a3.8,3.8,0,0,1-.254-1.113A4.031,4.031,0,0,1,96.045.2a3.73,3.73,0,0,1-2.563-.884,2.859,2.859,0,0,1-1-2.241,2.987,2.987,0,0,1,1.255-2.563,5.916,5.916,0,0,1,3.53-.913h1.758v-.83a2.029,2.029,0,0,0-.566-1.509,2.276,2.276,0,0,0-1.67-.562,2.634,2.634,0,0,0-1.621.488,1.439,1.439,0,0,0-.654,1.182H92.7a2.493,2.493,0,0,1,.562-1.528,3.832,3.832,0,0,1,1.523-1.167,5.125,5.125,0,0,1,2.114-.43,4.177,4.177,0,0,1,2.861.913,3.294,3.294,0,0,1,1.074,2.515v4.863A5.946,5.946,0,0,0,101.2-.156V0Zm-3-1.377a3.175,3.175,0,0,0,1.611-.439,2.658,2.658,0,0,0,1.1-1.143V-5.127H97.607q-3.32,0-3.32,1.943a1.645,1.645,0,0,0,.566,1.328A2.177,2.177,0,0,0,96.309-1.377Zm11.592.1a2.6,2.6,0,0,0,1.689-.586,2.061,2.061,0,0,0,.8-1.465H112.1a3.276,3.276,0,0,1-.625,1.729,4.116,4.116,0,0,1-1.538,1.309A4.438,4.438,0,0,1,107.9.2a4.353,4.353,0,0,1-3.433-1.44,5.737,5.737,0,0,1-1.274-3.94v-.3a6.361,6.361,0,0,1,.566-2.744,4.314,4.314,0,0,1,1.626-1.865,4.619,4.619,0,0,1,2.5-.664A4.238,4.238,0,0,1,110.845-9.7,3.8,3.8,0,0,1,112.1-6.934h-1.709a2.49,2.49,0,0,0-.776-1.685,2.415,2.415,0,0,0-1.724-.659,2.529,2.529,0,0,0-2.134.991A4.655,4.655,0,0,0,105-5.42v.342a4.562,4.562,0,0,0,.752,2.813A2.541,2.541,0,0,0,107.9-1.279ZM116.094,0h-1.807V-10.566h1.807Zm-1.953-13.369a1.078,1.078,0,0,1,.269-.742,1.008,1.008,0,0,1,.8-.3,1.024,1.024,0,0,1,.8.3,1.067,1.067,0,0,1,.273.742,1.032,1.032,0,0,1-.273.732,1.043,1.043,0,0,1-.8.293,1.026,1.026,0,0,1-.8-.293A1.043,1.043,0,0,1,114.141-13.369Zm4.365,7.988a6.241,6.241,0,0,1,.61-2.793,4.553,4.553,0,0,1,1.7-1.914,4.626,4.626,0,0,1,2.485-.674,4.456,4.456,0,0,1,3.491,1.494,5.748,5.748,0,0,1,1.333,3.975v.127a6.3,6.3,0,0,1-.591,2.769,4.486,4.486,0,0,1-1.689,1.909A4.679,4.679,0,0,1,123.32.2,4.445,4.445,0,0,1,119.839-1.3a5.719,5.719,0,0,1-1.333-3.955Zm1.816.215a4.52,4.52,0,0,0,.815,2.822,2.61,2.61,0,0,0,2.183,1.064,2.594,2.594,0,0,0,2.188-1.079,4.943,4.943,0,0,0,.811-3.022,4.513,4.513,0,0,0-.825-2.817A2.623,2.623,0,0,0,123.3-9.277a2.594,2.594,0,0,0-2.158,1.064A4.906,4.906,0,0,0,120.322-5.166Zm3.8-9.814h2.188l-2.617,2.871-1.455,0Zm7.979,4.414.059,1.328a3.851,3.851,0,0,1,3.164-1.523q3.35,0,3.379,3.779V0h-1.807V-6.992a2.433,2.433,0,0,0-.522-1.689,2.094,2.094,0,0,0-1.6-.547,2.607,2.607,0,0,0-1.543.469,3.183,3.183,0,0,0-1.035,1.23V0h-1.807V-10.566Z" transform="translate(1188.13 1966.728)" fill="#fff"/>
    <g id="_8k9e7V" data-name="8k9e7V" transform="translate(1479.889 1940.117)">
      <g id="Grupo_142362" data-name="Grupo 142362" transform="translate(-382.44 -2.119)">
        <path id="Trazado_174756" data-name="Trazado 174756" d="M-375.7,43.731v1.908l-1.388.062V64.949h32.426V45.72l-1.4-.093V43.744c.846,0,1.689-.052,2.522.017.645.053.868.538.864,1.163-.013,1.8,0,3.607,0,5.41,0,5.281.01,10.562-.014,15.843a1.316,1.316,0,0,0,.655,1.262c.775.507,1.482,1.117,2.26,1.619.51.33.6.791.3,1.166a4.424,4.424,0,0,1-1.57,1.373,6.86,6.86,0,0,1-2.555.476q-17.273.044-34.546,0a9.786,9.786,0,0,1-2.775-.552,2.615,2.615,0,0,1-1.137-.877c-.584-.722-.483-1.154.265-1.7.706-.518,1.395-1.062,2.126-1.541a1.193,1.193,0,0,0,.58-1.142q-.024-10.472-.011-20.944c0-1.336.243-1.579,1.567-1.58Zm34.243,25.706.057-.174c-.937-.749-1.864-1.51-2.82-2.234a1.2,1.2,0,0,0-.669-.105q-16-.007-32,0a1.192,1.192,0,0,0-.668.111c-.95.724-1.871,1.485-2.8,2.234l.062.168h.9c4.019,0,8.039,0,12.058.011.269,0,.691.079.777.253a1.288,1.288,0,0,0,1.2.684c.154.015.308.02.463.02,2.68,0,5.359.024,8.038-.02a2.022,2.022,0,0,0,1.445-.47,1.078,1.078,0,0,1,1.077-.481q5.99,0,11.981,0Z" transform="translate(382.44 -36.638)" fill="#0f1027"/>
        <path id="Trazado_174757" data-name="Trazado 174757" d="M-275.527,70.221c-1.779-1.028-3.423-1.966-5.049-2.935a.757.757,0,0,1-.273-.562c-.02-1.849-.012-3.7-.012-5.7.427.235.776.42,1.117.617,1.247.717,2.5,1.423,3.728,2.171a1.014,1.014,0,0,1,.468.68C-275.51,66.344-275.527,68.193-275.527,70.221Z" transform="translate(296.567 -51.265)" fill="#0f1027"/>
        <path id="Trazado_174758" data-name="Trazado 174758" d="M-234.343,60.861c0,2.039.009,3.91-.014,5.78a.749.749,0,0,1-.319.536c-1.608.954-3.233,1.88-5,2.9V67.764c0-1.1-.014-2.21.012-3.314a.876.876,0,0,1,.265-.647C-237.777,62.828-236.129,61.892-234.343,60.861Z" transform="translate(261.753 -51.124)" fill="#0f1027"/>
        <path id="Trazado_174759" data-name="Trazado 174759" d="M-266.744,38.686c-1.724,1-3.342,1.943-4.978,2.857a.829.829,0,0,1-.689,0c-1.635-.916-3.253-1.863-4.964-2.854,1.738-1,3.4-1.972,5.072-2.914a.681.681,0,0,1,.561.041C-270.11,36.735-268.49,37.678-266.744,38.686Z" transform="translate(293.618 -29.877)" fill="#0f1027"/>
        <path id="Trazado_174760" data-name="Trazado 174760" d="M-253.61,3.817c-1.09-.287-1.467-.766-1.6-1.629a27.836,27.836,0,0,0-.82-3.132h-.434c-.282,1.043-.6,2.078-.835,3.133-.242,1.1-.2,1.108-1.367,1.575a13.946,13.946,0,0,1,1.174-4.847,2.143,2.143,0,0,1,1.22-1.009c.651-.157,1.106.426,1.284,1C-254.5.469-254.1,2.054-253.61,3.817Z" transform="translate(277.798 2.119)" fill="#0f1027"/>
        <path id="Trazado_174761" data-name="Trazado 174761" d="M-309.326,39.909c-1.126-1.075-2.157-2.033-3.151-3.028a2.967,2.967,0,0,1-.607-.974,1.079,1.079,0,0,1,.995-1.633,6.42,6.42,0,0,1,1.976.216c1.128.308,2.226.728,3.4,1.123a1.729,1.729,0,0,1-2.153.446,14.1,14.1,0,0,0-3.1-.729,5.176,5.176,0,0,0,2.005,2.443A1.738,1.738,0,0,1-309.326,39.909Z" transform="translate(323.914 -28.641)" fill="#0f1027"/>
        <path id="Trazado_174762" data-name="Trazado 174762" d="M-209.46,35.078a27.2,27.2,0,0,0-3.116.867,1.7,1.7,0,0,1-2.062-.427,14.269,14.269,0,0,1,5.023-1.417c1.339-.024,1.934.98,1.1,2.044a28.33,28.33,0,0,1-3.461,3.485c-.221-.709-.351-1.278.315-1.789a18.562,18.562,0,0,0,1.887-1.811,3.965,3.965,0,0,0,.441-.681Z" transform="translate(240.581 -28.5)" fill="#0f1027"/>
        <path id="Trazado_174763" data-name="Trazado 174763" d="M-308.642,85.556a1.74,1.74,0,0,1-.608,1.973,27.514,27.514,0,0,0-2.259,2.225l.213.373c.965-.245,1.941-.455,2.892-.746,1.059-.324,1.049-.356,2.15.56-1.61.416-3.08.837-4.57,1.162-.6.132-1.384.09-1.583-.6a2.25,2.25,0,0,1,.3-1.626A14.31,14.31,0,0,1-308.642,85.556Z" transform="translate(323.279 -72.001)" fill="#0f1027"/>
        <path id="Trazado_174764" data-name="Trazado 174764" d="M-212.91,89.793a1.733,1.733,0,0,1,2.038-.449,21.362,21.362,0,0,0,2.856.776l.141-.221a3.405,3.405,0,0,0-.4-.67,14.115,14.115,0,0,0-1.757-1.719,1.7,1.7,0,0,1-.611-1.975,14.082,14.082,0,0,1,3.687,3.641c.612,1.052.1,1.926-1.124,1.928A13.291,13.291,0,0,1-212.91,89.793Z" transform="translate(239.12 -71.983)" fill="#0f1027"/>
        <path id="Trazado_174765" data-name="Trazado 174765" d="M-256.845,126.085a24.368,24.368,0,0,0,.747-2.777,1.7,1.7,0,0,1,1.4-1.593,11.978,11.978,0,0,1-1.282,4.867,1.178,1.178,0,0,1-2.252-.187c-.586-1.463-.921-3.026-1.4-4.664,1.171.279,1.331.471,1.517,1.261.243,1.037.545,2.06.822,3.089Z" transform="translate(278.62 -102.57)" fill="#0f1027"/>
      </g>
    </g>
  </g>
</svg>
