<svg xmlns="http://www.w3.org/2000/svg" xmlns:xlink="http://www.w3.org/1999/xlink" width="246" height="198" viewBox="0 0 246 198">
  <defs>
    <filter id="Rectángulo_36007" x="0" y="0" width="246" height="198" filterUnits="userSpaceOnUse">
      <feOffset dy="3" input="SourceAlpha"/>
      <feGaussianBlur stdDeviation="3" result="blur"/>
      <feFlood flood-opacity="0.161"/>
      <feComposite operator="in" in2="blur"/>
      <feComposite in="SourceGraphic"/>
    </filter>
  </defs>
  <g id="Grupo_143202" data-name="Grupo 143202" transform="translate(-305 -3248)">
    <g transform="matrix(1, 0, 0, 1, 305, 3248)" filter="url(#Rectángulo_36007)">
      <rect id="Rectángulo_36007-2" data-name="Rectángulo 36007" width="228" height="180" rx="10" transform="translate(9 6)" fill="#fff"/>
    </g>
    <path id="Trazado_183724" data-name="Trazado 183724" d="M52.145,11.211A4.025,4.025,0,0,1,50.789,14.1a4.76,4.76,0,0,1-3.223,1.055,4.281,4.281,0,0,1-3.441-1.473,6.038,6.038,0,0,1-1.254-4.043v-.7a6.819,6.819,0,0,1,.578-2.891A4.332,4.332,0,0,1,45.1,4.137a5.164,5.164,0,0,1,5.668.387A4.326,4.326,0,0,1,52.16,7.484H49.816a2.376,2.376,0,0,0-.613-1.6,2.271,2.271,0,0,0-1.605-.5,1.991,1.991,0,0,0-1.754.84,4.707,4.707,0,0,0-.6,2.605V9.7a5.038,5.038,0,0,0,.559,2.7,1.954,1.954,0,0,0,1.762.852,2.314,2.314,0,0,0,1.621-.5,2.241,2.241,0,0,0,.613-1.535Zm6.453,2.93a2.831,2.831,0,0,1-2.312,1.016,2.67,2.67,0,0,1-2.074-.781,3.335,3.335,0,0,1-.73-2.289V6.547h2.258v5.467q0,1.322,1.2,1.322a1.63,1.63,0,0,0,1.578-.8V6.547h2.266V15H58.66Zm7.781,1.016a4.15,4.15,0,0,1-3.027-1.141,4.054,4.054,0,0,1-1.168-3.039v-.219a5.106,5.106,0,0,1,.492-2.277A3.612,3.612,0,0,1,64.07,6.934a3.914,3.914,0,0,1,2.059-.543,3.508,3.508,0,0,1,2.73,1.094,4.444,4.444,0,0,1,1,3.1v.922H64.473a2.1,2.1,0,0,0,.66,1.328,2,2,0,0,0,1.395.5,2.437,2.437,0,0,0,2.039-.945l1.109,1.242A3.389,3.389,0,0,1,68.3,14.754,4.511,4.511,0,0,1,66.379,15.156Zm-.258-6.945a1.411,1.411,0,0,0-1.09.455,2.357,2.357,0,0,0-.535,1.3h3.141V9.788a1.681,1.681,0,0,0-.406-1.165A1.456,1.456,0,0,0,66.121,8.211Zm9.766.453a6.134,6.134,0,0,0-.812-.062,1.654,1.654,0,0,0-1.68.867V15H71.137V6.547H73.27l.063,1.008a2.092,2.092,0,0,1,1.883-1.164,2.366,2.366,0,0,1,.7.1Zm8.7,2.188A5.07,5.07,0,0,1,83.7,13.98,2.843,2.843,0,0,1,81.3,15.156a2.633,2.633,0,0,1-2.07-.891V18.25H76.973V6.547h2.094l.078.828a2.654,2.654,0,0,1,2.141-.984,2.862,2.862,0,0,1,2.43,1.156,5.207,5.207,0,0,1,.867,3.188Zm-2.258-.172a3.345,3.345,0,0,0-.418-1.826,1.36,1.36,0,0,0-1.215-.643,1.478,1.478,0,0,0-1.461.815V12.5a1.5,1.5,0,0,0,1.477.839Q82.324,13.336,82.324,10.679Zm3.3.016a5.013,5.013,0,0,1,.484-2.242A3.546,3.546,0,0,1,87.508,6.93a4.069,4.069,0,0,1,2.113-.539,3.849,3.849,0,0,1,2.793,1.047,4.2,4.2,0,0,1,1.207,2.844l.016.578a4.418,4.418,0,0,1-1.086,3.121,4.209,4.209,0,0,1-5.832,0,4.5,4.5,0,0,1-1.09-3.187Zm2.258.16A3.16,3.16,0,0,0,88.34,12.7a1.628,1.628,0,0,0,2.578.008,3.457,3.457,0,0,0,.461-2.015,3.128,3.128,0,0,0-.461-1.831,1.5,1.5,0,0,0-1.3-.649,1.474,1.474,0,0,0-1.281.646A3.516,3.516,0,0,0,87.887,10.856Zm15.875-2.192a6.134,6.134,0,0,0-.812-.062,1.654,1.654,0,0,0-1.68.867V15H99.012V6.547h2.133l.063,1.008a2.092,2.092,0,0,1,1.883-1.164,2.366,2.366,0,0,1,.7.1ZM107.285,15h-2.258V6.547h2.258Zm-.664-11.883h2.461l-2.164,2.422h-1.836Zm2.281,7.594a4.954,4.954,0,0,1,.926-3.133,3,3,0,0,1,2.5-1.187,2.631,2.631,0,0,1,2.164.953l.094-.8h2.047v8.172a3.613,3.613,0,0,1-.5,1.93,3.236,3.236,0,0,1-1.418,1.25,4.985,4.985,0,0,1-2.141.43,4.635,4.635,0,0,1-1.812-.371A3.217,3.217,0,0,1,109.418,17l1-1.375a2.645,2.645,0,0,0,2.047.945,1.936,1.936,0,0,0,1.4-.48,1.8,1.8,0,0,0,.5-1.363v-.453a2.612,2.612,0,0,1-2.055.883,2.992,2.992,0,0,1-2.465-1.191,4.953,4.953,0,0,1-.941-3.16Zm2.258.161a3.1,3.1,0,0,0,.461,1.809,1.465,1.465,0,0,0,1.266.655,1.567,1.567,0,0,0,1.477-.777V8.988a1.563,1.563,0,0,0-1.461-.777,1.474,1.474,0,0,0-1.277.667A3.5,3.5,0,0,0,111.16,10.872ZM120.746,15H118.48V6.547h2.266Zm-2.4-10.641a1.112,1.112,0,0,1,.34-.836,1.465,1.465,0,0,1,1.848,0,1.105,1.105,0,0,1,.344.836,1.108,1.108,0,0,1-.348.844,1.448,1.448,0,0,1-1.836,0A1.108,1.108,0,0,1,118.348,4.359Zm3.906,6.352a5.094,5.094,0,0,1,.887-3.148,2.877,2.877,0,0,1,2.426-1.172,2.589,2.589,0,0,1,2.039.922V3h2.266V15h-2.039l-.109-.9a2.657,2.657,0,0,1-2.172,1.055,2.869,2.869,0,0,1-2.395-1.176A5.258,5.258,0,0,1,122.254,10.711Zm2.258.161a3.355,3.355,0,0,0,.414,1.829,1.348,1.348,0,0,0,1.2.636,1.51,1.51,0,0,0,1.477-.887V9.1a1.489,1.489,0,0,0-1.461-.887Q124.512,8.211,124.512,10.872Zm6.758-.176a5.013,5.013,0,0,1,.484-2.242,3.546,3.546,0,0,1,1.395-1.523,4.069,4.069,0,0,1,2.113-.539,3.849,3.849,0,0,1,2.793,1.047,4.2,4.2,0,0,1,1.207,2.844l.016.578a4.418,4.418,0,0,1-1.086,3.121,4.209,4.209,0,0,1-5.832,0,4.5,4.5,0,0,1-1.09-3.187Zm2.258.16a3.16,3.16,0,0,0,.453,1.843,1.628,1.628,0,0,0,2.578.008,3.457,3.457,0,0,0,.461-2.015,3.128,3.128,0,0,0-.461-1.831,1.5,1.5,0,0,0-1.3-.649,1.474,1.474,0,0,0-1.281.646A3.516,3.516,0,0,0,133.527,10.856Z" transform="translate(338 3371)" fill="#12263f"/>
    <g id="Grupo_142438" data-name="Grupo 142438" transform="translate(130 -2557)">
      <circle id="Elipse_4775" data-name="Elipse 4775" cx="43" cy="43" r="43" transform="translate(256 5830)" fill="#af0f3f"/>
      <g id="Grupo_143036" data-name="Grupo 143036" transform="translate(4471.149 6793.296)">
        <g id="ljTjMV" transform="translate(-4196.801 -936.748)">
          <g id="Grupo_143035" data-name="Grupo 143035" transform="translate(0 0)">
            <path id="Trazado_183668" data-name="Trazado 183668" d="M-4196.783-842.926q0-12.609-.006-25.217c0-1.64-.222-1.643,1.651-2.188,7.42-2.158,14.835-4.335,22.258-6.483a2.467,2.467,0,0,1,1.3-.029q11.459,3.313,22.9,6.677c1.172.343,1.283.6.874,1.74a2.368,2.368,0,0,0-.057.786q.009,11.846.023,23.692c0,.692-.032,1.385.016,2.074a.957.957,0,0,1-.6,1.079c-1.018.406-2.042.8-3.077,1.159q-10.1,3.514-20.2,7.021a2.38,2.38,0,0,1-1.71-.016c-4.272-1.558-8.553-3.091-12.832-4.633q-4.212-1.519-8.423-3.045c-.4-.145-.8-.29-1.2-.442-.6-.23-1.02-.586-.93-1.318A7.054,7.054,0,0,0-4196.783-842.926Zm25.181,8.231c.28-.079.476-.124.664-.189q10.009-3.472,20.016-6.948c1.21-.42,1.21-.426,1.209-1.677q-.015-11.782-.034-23.563c0-.2-.017-.4-.03-.672-.29.075-.521.129-.75.2q-10.256,3-20.514,5.98c-.478.138-.57.365-.57.816q.019,12.669.009,25.339Zm-23.253-33.145c-.015.236-.028.356-.029.477q-.073,12.208-.127,24.415a.891.891,0,0,0,.387.653,7.533,7.533,0,0,0,1.193.428q2.9,1.042,5.791,2.091,6.729,2.43,13.459,4.858c.2.071.405.113.645.178.021-.185.043-.284.043-.383q0-13.005.011-26.01c0-.407-.181-.518-.505-.613-1.4-.41-2.8-.845-4.2-1.254q-6.541-1.905-13.084-3.8Zm42.83-1.285c-.328-.123-.486-.193-.65-.242q-9.538-2.794-19.081-5.574a1.669,1.669,0,0,0-.882.011q-8.724,2.526-17.439,5.082c-.719.21-1.434.432-2.262.681a3.439,3.439,0,0,0,.384.187q6.261,1.876,12.524,3.744c1.775.526,3.557,1.037,5.346,1.517a4.154,4.154,0,0,0,1.922.293c3.146-.814,6.261-1.746,9.387-2.636q2.911-.829,5.824-1.654C-4155.368-868.167-4153.785-868.622-4152.025-869.125Z" transform="translate(4196.801 876.917)" fill="#fff"/>
          </g>
        </g>
        <path id="Path_183628" data-name="Path 183628" d="M-3877.787-939.976l-8.866-5.121v10.239Z" transform="translate(-269.121 -1.891)" fill="#fff"/>
        <rect id="Rectángulo_42299" data-name="Rectángulo 42299" width="42.473" height="5.52" transform="translate(-4197.227 -944.618)" fill="#fff"/>
      </g>
    </g>
  </g>
</svg>
