<svg xmlns="http://www.w3.org/2000/svg" xmlns:xlink="http://www.w3.org/1999/xlink" width="1328" height="2276" viewBox="0 0 1328 2276">
  <defs>
    <linearGradient id="linear-gradient" x1="0.5" y1="0.5" x2="0.488" y2="0.944" gradientUnits="objectBoundingBox">
      <stop offset="0" stop-color="#afafaf" stop-opacity="0.502"/>
      <stop offset="1" stop-color="#e8e8e8" stop-opacity="0"/>
    </linearGradient>
  </defs>
  <g id="Grupo_143199" data-name="Grupo 143199" transform="translate(-1876 -2737)">
    <rect id="Rect치ngulo_37011" data-name="Rect치ngulo 37011" width="1328" height="1090" transform="translate(3204 3827) rotate(180)" opacity="0.25" fill="url(#linear-gradient)"/>
    <rect id="Rect치ngulo_37012" data-name="Rect치ngulo 37012" width="1328" height="1186" transform="translate(1876 3827)" opacity="0.25" fill="url(#linear-gradient)"/>
    <g id="Grupo_124207" data-name="Grupo 124207" transform="translate(2659.006 2787.916)" opacity="0.047">
      <path id="Trazado_173958" data-name="Trazado 173958" d="M420.58,710.791c.19-.07.382-.128.574-.177l-7.147-59.024-5.1-42.088a6.039,6.039,0,0,1-4.165-1.721l-59.006,46.4,72.713,57.941A5.993,5.993,0,0,1,420.58,710.791Z" transform="translate(-418.484 -160.117)" fill="none"/>
      <path id="Trazado_173959" data-name="Trazado 173959" d="M-265.77,946.952a6.016,6.016,0,0,1,.544-5.237l-22.906-18.66-30.355,97.635c.142.068.282.141.418.22l38.729-51.659,15.031-20.049A5.99,5.99,0,0,1-265.77,946.952Z" transform="translate(-171.86 -277.177)" fill="none"/>
      <path id="Trazado_173960" data-name="Trazado 173960" d="M-230.52,749.979a6.012,6.012,0,0,1,.9.492l67.087-69.109a6,6,0,0,1-.946-1.684,6.032,6.032,0,0,1-.359-1.825l-44.292-3.973Z" transform="translate(-204.522 -184.659)" fill="none"/>
      <path id="Trazado_173961" data-name="Trazado 173961" d="M-228.4,808.171a6,6,0,0,1-3.261,2.85,6.049,6.049,0,0,1-.951.254l4.832,84.946a6.066,6.066,0,0,1,1.056.169L-197.09,822Z" transform="translate(-203.744 -234.521)" fill="none"/>
      <path id="Trazado_173962" data-name="Trazado 173962" d="M-570.011,517.737a6.02,6.02,0,0,1,1.095,1.86,6,6,0,0,1,.049,3.975l115,50.951a6.076,6.076,0,0,1,.483-.679l-85.466-90.467Z" transform="translate(-78.471 -113.927)" fill="none"/>
      <path id="Trazado_173963" data-name="Trazado 173963" d="M-488.36,692.854a6,6,0,0,1,3.481-.194l32.666-85.144a6,6,0,0,1-2.8-3.236,5.994,5.994,0,0,1-.11-3.774l-115.051-50.975a6.012,6.012,0,0,1-1.527,1.592l83.059,141.851C-488.549,692.934-488.457,692.89-488.36,692.854Z" transform="translate(-77.843 -138.489)" fill="none"/>
      <path id="Trazado_173964" data-name="Trazado 173964" d="M-427.093,756.734c.054.123.11.243.157.371a6.041,6.041,0,0,1,.359,1.8l114.752,9.786a6.053,6.053,0,0,1,1.455-2.8l-44.408-53.014Z" transform="translate(-131.535 -199.138)" fill="none"/>
      <path id="Trazado_173965" data-name="Trazado 173965" d="M-395.154,642a6,6,0,0,1-3.482.194L-431.3,727.337a6.011,6.011,0,0,1,1.843,1.536l72.109-43.737-36.625-43.723A6.068,6.068,0,0,1-395.154,642Z" transform="translate(-129.973 -172.605)" fill="none"/>
      <path id="Trazado_173966" data-name="Trazado 173966" d="M-469.012,748.741a6.041,6.041,0,0,1,1.972-3.87l-40.052-58.409a6.039,6.039,0,0,1-.915.429,6.044,6.044,0,0,1-1.005.265l1.052,62.589Z" transform="translate(-101.119 -189.332)" fill="none"/>
      <path id="Trazado_173967" data-name="Trazado 173967" d="M132.546,636.856l46.792,24.475,22.171-46.6a6.017,6.017,0,0,1-3.79-3.249L133,633.754A6.012,6.012,0,0,1,132.546,636.856Z" transform="translate(-339.326 -161.492)" fill="none"/>
      <path id="Trazado_173968" data-name="Trazado 173968" d="M-503.984,682.191l31.175,45.462-29.381-50.178A6.039,6.039,0,0,1-503.984,682.191Z" transform="translate(-102.986 -185.994)" fill="none"/>
      <path id="Trazado_173969" data-name="Trazado 173969" d="M-361.867,972.094l30.534-98.21-98.7-80.411a5.979,5.979,0,0,1-1.31.937l67.088,177.711A5.977,5.977,0,0,1-361.867,972.094Z" transform="translate(-129.956 -229.064)" fill="none"/>
      <path id="Trazado_173970" data-name="Trazado 173970" d="M-246.028,899.7a6,6,0,0,1,2.082-1.288,6.076,6.076,0,0,1,.947-.253l-4.867-84.95c-.188-.015-.375-.038-.559-.07l-20.989,67.51Z" transform="translate(-190.08 -236.364)" fill="none"/>
      <path id="Trazado_173971" data-name="Trazado 173971" d="M-427.708,790.438l98.223,80.02,20.8-66.912a6.01,6.01,0,0,1-3.15-3.415,6.038,6.038,0,0,1-.359-1.8l-114.753-9.786A6.051,6.051,0,0,1-427.708,790.438Z" transform="translate(-131.307 -227.235)" fill="none"/>
      <path id="Trazado_173972" data-name="Trazado 173972" d="M-160.063,687.52-226.9,756.795a6,6,0,0,1,.958,1.7,6,6,0,0,1,.206,3.425l31.342,13.844,34.989-87.82A6.061,6.061,0,0,1-160.063,687.52Z" transform="translate(-205.867 -189.724)" fill="none"/>
      <path id="Trazado_173973" data-name="Trazado 173973" d="M130.9,594.172l64.63-22.242a6.031,6.031,0,0,1,1.762-5.408L154.88,508.947l-26.98,82A6.006,6.006,0,0,1,130.9,594.172Z" transform="translate(-337.601 -123.421)" fill="none"/>
      <path id="Trazado_173974" data-name="Trazado 173974" d="M596.4,640.475a6,6,0,0,1-.339-2.561l-95.91-20.581L471.9,714.484a6.019,6.019,0,0,1,2.268,1.727l122.4-75.329C596.513,640.748,596.452,640.616,596.4,640.475Z" transform="translate(-465.327 -163.664)" fill="none"/>
      <path id="Trazado_173975" data-name="Trazado 173975" d="M-370.039,638.773l36.779,43.907,37.724-22.881c-.053-.123-.109-.243-.156-.37a5.989,5.989,0,0,1-.308-2.864l-72.9-19.576A6.046,6.046,0,0,1-370.039,638.773Z" transform="translate(-152.719 -170.962)" fill="none"/>
      <path id="Trazado_173976" data-name="Trazado 173976" d="M253.385,565.3c.026.07.042.14.065.21l38.638-.964,76.258-1.9a6.049,6.049,0,0,1,1.432-3.316L316.346,499.48l-63.859,64.188A6.036,6.036,0,0,1,253.385,565.3Z" transform="translate(-383.86 -119.906)" fill="none"/>
      <path id="Trazado_173977" data-name="Trazado 173977" d="M-239.874,675.452a6,6,0,0,1-.651.194l3.569,72.544a6.008,6.008,0,0,1,1.232.07l22.3-75.8-22.525-2.021A6.024,6.024,0,0,1-239.874,675.452Z" transform="translate(-200.807 -183.383)" fill="none"/>
      <path id="Trazado_173978" data-name="Trazado 173978" d="M-161.808,581.917l27.518,54.829a6.029,6.029,0,0,1,7.654,3.626c.064.174.115.348.162.524l36.763-4.776L11.723,622.942a5.985,5.985,0,0,1-.02-.779l-170.957-43.026A6.007,6.007,0,0,1-161.808,581.917Z" transform="translate(-230.034 -149.482)" fill="none"/>
      <path id="Trazado_173979" data-name="Trazado 173979" d="M-150.213,643.116a6.035,6.035,0,0,1,2.509-3.684l-27.576-54.944a5.989,5.989,0,0,1-2.844.033L-194.2,639.17Z" transform="translate(-218.007 -151.468)" fill="none"/>
      <path id="Trazado_173980" data-name="Trazado 173980" d="M-525.261,636.264l-33.571-57.333,28.517,56.6A6.013,6.013,0,0,1-525.261,636.264Z" transform="translate(-82.622 -149.406)" fill="none"/>
      <path id="Trazado_173981" data-name="Trazado 173981" d="M-496.048,860.227l31.149-60.62-35.429,48.076a6,6,0,0,1,1.5,2.285,6.024,6.024,0,0,1-1.084,5.978Z" transform="translate(-104.344 -231.341)" fill="none"/>
      <path id="Trazado_173982" data-name="Trazado 173982" d="M396.508,741.326l-73-58.169L289.243,710.1a5.992,5.992,0,0,1,.87,3.872l105.98,28.183A6.12,6.12,0,0,1,396.508,741.326Z" transform="translate(-397.507 -188.104)" fill="none"/>
      <path id="Trazado_173983" data-name="Trazado 173983" d="M-388.471,973.577l.185-.536-66.938-177.315a6,6,0,0,1-3.427-.193l-33.1,64.413,102.894,113.878C-388.73,973.738-388.6,973.654-388.471,973.577Z" transform="translate(-107.529 -229.829)" fill="none"/>
      <path id="Trazado_173984" data-name="Trazado 173984" d="M-544.027,843.664a5.988,5.988,0,0,1,1.742-.995,6.009,6.009,0,0,1,1.187-.3l-.886-52.717-53.44,1.378a6.047,6.047,0,0,1-1.116,2.927Z" transform="translate(-68.621 -227.645)" fill="none"/>
      <path id="Trazado_173985" data-name="Trazado 173985" d="M-112,866.214l-79.337-35.044-29.617,74.338a6,6,0,0,1,2.416,2.49l106.436-38.763A5.991,5.991,0,0,1-112,866.214Z" transform="translate(-208.072 -243.061)" fill="none"/>
      <path id="Trazado_173986" data-name="Trazado 173986" d="M-137.927,689.112l-35.009,87.869,79.386,35.066a6,6,0,0,1,2.38-2.223L-135.119,689.15A5.987,5.987,0,0,1-137.927,689.112Z" transform="translate(-225.903 -190.315)" fill="none"/>
      <path id="Trazado_173987" data-name="Trazado 173987" d="M454.674,557.228a6,6,0,0,1,.339,2.558l37.255,8,22.8-78.414a6.087,6.087,0,0,1-1.168-.589l-60.311,66.606A5.993,5.993,0,0,1,454.674,557.228Z" transform="translate(-458.53 -115.932)" fill="none"/>
      <path id="Trazado_173988" data-name="Trazado 173988" d="M214.828,509.95a5.484,5.484,0,0,1,1.614-.612L203.059,359.16a5.974,5.974,0,0,1-.888-.107l-30.412,92.43Z" transform="translate(-353.886 -67.766)" fill="none"/>
      <path id="Trazado_173989" data-name="Trazado 173989" d="M153.848,501.1l-6.745-9.157a5.891,5.891,0,0,1-3.225.754l-15.716,86.471Z" transform="translate(-337.699 -117.107)" fill="none"/>
      <path id="Trazado_173990" data-name="Trazado 173990" d="M-433.243,539.161a6.056,6.056,0,0,1,1.474-.788l-32.356-144.319a6.035,6.035,0,0,1-4.1-1.212l-50.568,55.767Z" transform="translate(-97.489 -80.311)" fill="none"/>
      <path id="Trazado_173991" data-name="Trazado 173991" d="M-460.989,1130.06l48.1,44.37a6,6,0,0,1,1.8-1.045,6,6,0,0,1,3.278-.235l27.706-80.327Z" transform="translate(-118.95 -340.211)" fill="none"/>
      <path id="Trazado_173992" data-name="Trazado 173992" d="M778.915,592.849a6,6,0,0,1,2.367-1.58c.17-.062.34-.112.512-.157l-5.284-40.053-10.156-76.985a6.021,6.021,0,0,1-2.6-.593l-47.174,75.237Z" transform="translate(-556.176 -110.253)" fill="none"/>
      <path id="Trazado_173993" data-name="Trazado 173993" d="M409.3,533.861a6.014,6.014,0,0,1,1.336-.693,5.887,5.887,0,0,1,.582-.179l-11.749-98.067a6.037,6.037,0,0,1-3.6-1.24L355.8,473.947Z" transform="translate(-422.221 -95.475)" fill="none"/>
      <path id="Trazado_173994" data-name="Trazado 173994" d="M632.552,584.663a6.1,6.1,0,0,1,.816-.376,6.013,6.013,0,0,1,4.583.189L657,554.092l-95.014-67.268c-.075.091-.151.18-.231.267Z" transform="translate(-498.691 -115.207)" fill="none"/>
      <path id="Trazado_173995" data-name="Trazado 173995" d="M-730.261,381.083c.026.063.056.123.079.187.069.189.126.378.175.569l180.89-22.066a6.015,6.015,0,0,1,.521-2.173l-68.47-40.143Z" transform="translate(-18.971 -52.321)" fill="none"/>
      <path id="Trazado_173996" data-name="Trazado 173996" d="M-745.487,333.148l112.4-63.181L-766.06,192.007a6,6,0,0,1-2.7,1.975c-.158.058-.317.1-.477.147l18.867,136.6A6.04,6.04,0,0,1-745.487,333.148Z" transform="translate(-4.5 -5.743)" fill="none"/>
      <path id="Trazado_173997" data-name="Trazado 173997" d="M994.036,453.5a5.871,5.871,0,0,1,3.244-.718l15.612-80.288L907.743,331.086a6.062,6.062,0,0,1-.878,1.569Z" transform="translate(-626.827 -57.382)" fill="none"/>
      <path id="Trazado_173998" data-name="Trazado 173998" d="M927.075,645.925,977.7,541.808a6,6,0,0,1-.9-.723L864.051,630.042l55.7,18.939a6.013,6.013,0,0,1,7.323-3.056Z" transform="translate(-610.93 -135.354)" fill="none"/>
      <path id="Trazado_173999" data-name="Trazado 173999" d="M1143.4,379.9l.032-.014a6.017,6.017,0,0,1,5.426.668L1185.57,338.8l-82.5-35.68a6.032,6.032,0,0,1-1.1,1.351Z" transform="translate(-699.27 -46.999)" fill="none"/>
      <path id="Trazado_174000" data-name="Trazado 174000" d="M-268.965,579.1a6.006,6.006,0,0,1,.611-.263,6,6,0,0,1,3.515-.187l53.533-137.146a6.068,6.068,0,0,1-1.074-.744l-93.731,82.721Z" transform="translate(-176.455 -98.104)" fill="none"/>
      <path id="Trazado_174001" data-name="Trazado 174001" d="M369.869,604.566a5.934,5.934,0,0,1-.78-2.16l-114.637,2.862a5.977,5.977,0,0,1-.053,1.159l56.179,44.768Z" transform="translate(-384.57 -158.122)" fill="none"/>
      <path id="Trazado_174002" data-name="Trazado 174002" d="M-265.681,750.97a6.091,6.091,0,0,1,1.18-.586c.077-.028.156-.047.234-.072l-3.575-72.667a6.04,6.04,0,0,1-4.575-2.261l-37.518,22.755Z" transform="translate(-175.036 -185.218)" fill="none"/>
      <path id="Trazado_174003" data-name="Trazado 174003" d="M613.325,588.686a6.052,6.052,0,0,1,1.545-2.37l-70.729-97.482a5.964,5.964,0,0,1-3.815.9l-22.8,78.391Z" transform="translate(-482.269 -115.953)" fill="none"/>
      <path id="Trazado_174004" data-name="Trazado 174004" d="M-573.32,498.855l31.242-34.453-27.475-29.083a6.024,6.024,0,0,1-1.477.79,6.059,6.059,0,0,1-1.6.341l-3.187,61.408A6.063,6.063,0,0,1-573.32,498.855Z" transform="translate(-76.316 -96.083)" fill="none"/>
      <path id="Trazado_174005" data-name="Trazado 174005" d="M449.243,607.79c-.191.069-.382.128-.574.177l5,41.291,7.244,59.821a6,6,0,0,1,.872.066l28.22-97.038-37.141-7.971A6.021,6.021,0,0,1,449.243,607.79Z" transform="translate(-456.701 -158.764)" fill="none"/>
      <path id="Trazado_174006" data-name="Trazado 174006" d="M-543.332,687.145a6.037,6.037,0,0,1-2.728-.914L-597.269,747.9a6.015,6.015,0,0,1,1.248,2.043,6.055,6.055,0,0,1,.29,1.134l53.45-1.379Z" transform="translate(-68.35 -189.245)" fill="none"/>
      <path id="Trazado_174007" data-name="Trazado 174007" d="M253.064,611.363a6.023,6.023,0,0,1-1,1.549l17.5,67.747a6.032,6.032,0,0,1,4.885,1.591l34.007-26.745Z" transform="translate(-383.704 -161.447)" fill="none"/>
      <path id="Trazado_174008" data-name="Trazado 174008" d="M234.819,615.591a5.973,5.973,0,0,1-3.257.905l-22.4,47.081,40.342,21.1a6,6,0,0,1,2.632-2.055Z" transform="translate(-367.773 -163.017)" fill="none"/>
      <path id="Trazado_174009" data-name="Trazado 174009" d="M1131.722,383.5a6,6,0,0,1,1.525-1.555l-41.334-75.254a6.08,6.08,0,0,1-.741.334,6,6,0,0,1-2.137.358l-10.711,55.084Z" transform="translate(-690.489 -48.325)" fill="none"/>
      <path id="Trazado_174010" data-name="Trazado 174010" d="M826.073,595.591a6.04,6.04,0,0,1,2.661,1.93l86.532-51.627,46.111-27.512c-.047-.109-.1-.216-.139-.33a5.994,5.994,0,0,1-.306-2.893L851.041,485.1Z" transform="translate(-596.829 -114.567)" fill="none"/>
      <path id="Trazado_174011" data-name="Trazado 174011" d="M-417.766,1013.774l-102.5-113.44-46.243,89.995a6,6,0,0,1,2.245,2.9,6.018,6.018,0,0,1,.358,2.14l144.917,20.71A6.044,6.044,0,0,1-417.766,1013.774Z" transform="translate(-79.771 -268.741)" fill="none"/>
      <path id="Trazado_174012" data-name="Trazado 174012" d="M1121.682,422.794a6,6,0,0,1-.028-4.045l-53-20.873L1053.1,477.884a6.051,6.051,0,0,1,2.183,1.287l66.648-55.79A5.972,5.972,0,0,1,1121.682,422.794Z" transform="translate(-681.124 -82.181)" fill="none"/>
      <path id="Trazado_174013" data-name="Trazado 174013" d="M685.036,625.562a5.969,5.969,0,0,1,2.193,4.664l78.579,10.37a6.042,6.042,0,0,1,.5-1.266l-62.265-44.083Z" transform="translate(-544.463 -155.464)" fill="none"/>
      <path id="Trazado_174014" data-name="Trazado 174014" d="M218.294,719.44a6,6,0,0,1,.043-4.226l-40.274-21.067L127.2,801.046a6,6,0,0,1,.687.509l91.023-80.889A6.007,6.007,0,0,1,218.294,719.44Z" transform="translate(-337.342 -192.185)" fill="none"/>
      <path id="Trazado_174015" data-name="Trazado 174015" d="M175.246,678.507l-46.923-24.545a6,6,0,0,1-3.827,2.228l-.224,24.694-.947,104.33a6.048,6.048,0,0,1,1.035.242Z" transform="translate(-335.903 -177.264)" fill="none"/>
      <path id="Trazado_174016" data-name="Trazado 174016" d="M-468.049,789.123a6.07,6.07,0,0,1-.29-1.134l-38.956,1,.886,52.737a6.049,6.049,0,0,1,2.244.717l37.614-51.039A6,6,0,0,1-468.049,789.123Z" transform="translate(-101.757 -227.028)" fill="none"/>
      <path id="Trazado_174017" data-name="Trazado 174017" d="M-440.783,1197.974l-48.569-44.805-43.912,20.215a6,6,0,0,1,.233,2.516l91.571,23.33A6.1,6.1,0,0,1-440.783,1197.974Z" transform="translate(-92.115 -362.617)" fill="none"/>
      <path id="Trazado_174018" data-name="Trazado 174018" d="M372.453,894.507,279.6,809.136,136.4,846.653l235.289,49.341A6.054,6.054,0,0,1,372.453,894.507Z" transform="translate(-340.757 -234.879)" fill="none"/>
      <path id="Trazado_174019" data-name="Trazado 174019" d="M-547.079,1136.9l43.32-19.943-63.133-58.241a6,6,0,0,1-1.8,1.045c-.014.006-.029.008-.043.014l16.05,74.327A6.033,6.033,0,0,1-547.079,1136.9Z" transform="translate(-78.944 -327.548)" fill="none"/>
      <path id="Trazado_174020" data-name="Trazado 174020" d="M229.185,355.252l78.571,88,39.992-40.2a6.016,6.016,0,0,1-1.1-5.067l-116.7-43.85A6.056,6.056,0,0,1,229.185,355.252Z" transform="translate(-375.208 -65.941)" fill="none"/>
      <path id="Trazado_174021" data-name="Trazado 174021" d="M-314.123,1048.733a6.076,6.076,0,0,1,.316.707,6,6,0,0,1,.214.751l127.388-11.559-45.386-47.224Z" transform="translate(-173.481 -302.556)" fill="none"/>
      <path id="Trazado_174022" data-name="Trazado 174022" d="M59.649,840.758,4.54,795.995l-36.665,54.339a6.015,6.015,0,0,1,1.678,2.46,6.183,6.183,0,0,1,.193.647l89.006-9.647A6.039,6.039,0,0,1,59.649,840.758Z" transform="translate(-278.185 -230)" fill="none"/>
      <path id="Trazado_174023" data-name="Trazado 174023" d="M-95.782,896.06-180.8,955.109l45.493,47.335,41.09-105.15A6.032,6.032,0,0,1-95.782,896.06Z" transform="translate(-222.984 -267.154)" fill="none"/>
      <path id="Trazado_174024" data-name="Trazado 174024" d="M-339.669,1086.067a6.028,6.028,0,0,1-6.621-1.725l-27.784,80.555a6.03,6.03,0,0,1,2.041,1.652l161.945-97.314-125.621,11.4A6.029,6.029,0,0,1-339.669,1086.067Z" transform="translate(-151.221 -331.453)" fill="none"/>
      <path id="Trazado_174025" data-name="Trazado 174025" d="M-234.6,635.307a6.018,6.018,0,0,1,.3,1.157l23,2.063,16.2-55.052a5.978,5.978,0,0,1-.566-.338l-40.34,49.962A5.991,5.991,0,0,1-234.6,635.307Z" transform="translate(-202.483 -150.968)" fill="none"/>
      <path id="Trazado_174026" data-name="Trazado 174026" d="M-157.067,543.568,13.718,586.551a6.025,6.025,0,0,1,6.052-4.212l16.654-91.633a6.011,6.011,0,0,1-3.7-3.361l-189.855,53.915A5.988,5.988,0,0,1-157.067,543.568Z" transform="translate(-231.77 -115.4)" fill="none"/>
      <path id="Trazado_174027" data-name="Trazado 174027" d="M224,358.46l13.382,150.178a6.045,6.045,0,0,1,3.423,1.24l63.927-64.256L226.1,357.551a6.016,6.016,0,0,1-1.336.693A6.144,6.144,0,0,1,224,358.46Z" transform="translate(-373.284 -67.208)" fill="none"/>
      <path id="Trazado_174028" data-name="Trazado 174028" d="M-368.474,609.232a6.007,6.007,0,0,1,.309,2.865l72.9,19.575a6.025,6.025,0,0,1,1.6-2.239l-37.032-55.449-38.457,33.94A6.015,6.015,0,0,1-368.474,609.232Z" transform="translate(-153.051 -147.569)" fill="none"/>
      <path id="Trazado_174029" data-name="Trazado 174029" d="M-429.328,394.07c-.031.011-.063.018-.094.029l32.352,144.3a6.038,6.038,0,0,1,4.52,1.46l38.611-34.075-74.783-111.974A6.051,6.051,0,0,1-429.328,394.07Z" transform="translate(-130.671 -80.671)" fill="none"/>
      <path id="Trazado_174030" data-name="Trazado 174030" d="M-748.364,579.328l73.792-101.858-64.362-48.525a6,6,0,0,1-2.24,1.45,6.007,6.007,0,0,1-1.587.34l-7.4,147.956A6.061,6.061,0,0,1-748.364,579.328Z" transform="translate(-11.58 -93.717)" fill="none"/>
      <path id="Trazado_174031" data-name="Trazado 174031" d="M-656.14,742.873l7.056-64.406-93.744-.612a6.056,6.056,0,0,1-.77,2.233l83.33,64.538a6,6,0,0,1,2.185-1.394A6.014,6.014,0,0,1-656.14,742.873Z" transform="translate(-14.019 -186.135)" fill="none"/>
      <path id="Trazado_174032" data-name="Trazado 174032" d="M-426.257,390.7l74.667,111.8,93.577-82.585a6.021,6.021,0,0,1-.673-1.308,6.013,6.013,0,0,1-.358-2.316l-165.363-28.533A6.045,6.045,0,0,1-426.257,390.7Z" transform="translate(-131.846 -78.424)" fill="none"/>
      <path id="Trazado_174033" data-name="Trazado 174033" d="M-238.166,580c.041.023.084.042.124.065l40.4-50.042a5.994,5.994,0,0,1-1.129-1.9,6.031,6.031,0,0,1,3.6-7.731,6.01,6.01,0,0,1,1.954-.359l8.594-77.175-.018,0Z" transform="translate(-201.683 -98.881)" fill="none"/>
      <path id="Trazado_174034" data-name="Trazado 174034" d="M848.856,684.4l-21.817,17.214a6.116,6.116,0,0,1,.492,1.03,6.032,6.032,0,0,1,.312,1.3l77.6.125c.018-.136.043-.269.07-.4Z" transform="translate(-597.188 -188.565)" fill="none"/>
      <path id="Trazado_174035" data-name="Trazado 174035" d="M-562.791,412.16a6.03,6.03,0,0,1-1.272,4.827l27.394,29,50.531-55.725a6.039,6.039,0,0,1-.826-1.439Z" transform="translate(-80.679 -78.818)" fill="none"/>
      <path id="Trazado_174036" data-name="Trazado 174036" d="M-629.183,268.051l64.564-36.292c-.014-.036-.031-.069-.044-.1a6,6,0,0,1-.314-2.814l-197.8-39.626c-.048.141-.1.279-.162.417Z" transform="translate(-6.838 -4.706)" fill="none"/>
      <path id="Trazado_174037" data-name="Trazado 174037" d="M563.961,442.368l139.655-9.214a6.037,6.037,0,0,1,2.551-4.431l-25-47.865L563.743,441.591A6.06,6.06,0,0,1,563.961,442.368Z" transform="translate(-499.428 -75.862)" fill="none"/>
      <path id="Trazado_174038" data-name="Trazado 174038" d="M-483.972,259.055l-63.753,35.836,67.715,39.7a5.992,5.992,0,0,1,2.629-1.889,6,6,0,0,1,.909-.246l-2.825-70.911A6.038,6.038,0,0,1-483.972,259.055Z" transform="translate(-86.745 -30.637)" fill="none"/>
      <path id="Trazado_174039" data-name="Trazado 174039" d="M1260.828,380.532,1215.445,360.9,1178.4,403.028a5.993,5.993,0,0,1,1.137,1.911l0,0-.2-.754,81.246-21.8A6.021,6.021,0,0,1,1260.828,380.532Z" transform="translate(-727.647 -68.453)" fill="none"/>
      <path id="Trazado_174040" data-name="Trazado 174040" d="M1136.583,442.108l-49.373,66.855,40.479,16.955a6.024,6.024,0,0,1,4.883-3l5.936-79.93A6.074,6.074,0,0,1,1136.583,442.108Z" transform="translate(-693.788 -98.604)" fill="none"/>
      <path id="Trazado_174041" data-name="Trazado 174041" d="M1082.788,567.593l-40.831-17.1-74.069,100.3c.107.1.211.206.311.316l115.039-79.169a5.912,5.912,0,0,1-.449-4.341Z" transform="translate(-649.484 -138.846)" fill="none"/>
      <path id="Trazado_174042" data-name="Trazado 174042" d="M1259.052,322.753l-20.016,22.76,44.928,19.431a6,6,0,0,1,1.252-1.468l-20.741-40.055A6.017,6.017,0,0,1,1259.052,322.753Z" transform="translate(-750.16 -54.288)" fill="none"/>
      <path id="Trazado_174043" data-name="Trazado 174043" d="M1187.656,336.533,1208,313.4a5.991,5.991,0,0,1-1.5-3.749l-101.728-9.337c-.026.114-.056.227-.089.34Z" transform="translate(-700.278 -45.955)" fill="none"/>
      <path id="Trazado_174044" data-name="Trazado 174044" d="M804.205,417.771l36.88,10.088L861.7,336.64a6.051,6.051,0,0,1-1.285-.522l-58.042,76.561a5.985,5.985,0,0,1,1.833,5.092Z" transform="translate(-588.029 -59.25)" fill="none"/>
      <path id="Trazado_174045" data-name="Trazado 174045" d="M161.325,437.288a6.029,6.029,0,0,1-1.5,6.417l6.088,8.264L194.7,364.493l-35.634,69.888A5.994,5.994,0,0,1,161.325,437.288Z" transform="translate(-349.172 -69.786)" fill="none"/>
      <path id="Trazado_174046" data-name="Trazado 174046" d="M-500.519,1114.479l82.472-37.967a6,6,0,0,1-.275-1.87l-144.917-20.71a6.074,6.074,0,0,1-.885,1.87Z" transform="translate(-80.657 -325.771)" fill="none"/>
      <path id="Trazado_174047" data-name="Trazado 174047" d="M-253.136,956.823a6.028,6.028,0,0,1-3.931,6.269,6.016,6.016,0,0,1-5.028-.419l-53.772,71.723c.072.072.145.143.213.218l82.325-57.181Z" transform="translate(-172.833 -289.715)" fill="none"/>
      <path id="Trazado_174048" data-name="Trazado 174048" d="M-600.237,744.173l51.209-61.671a6.014,6.014,0,0,1-1.247-2.042,6.008,6.008,0,0,1-.315-1.327l-44.37-.29-7.073,64.562A6.052,6.052,0,0,1-600.237,744.173Z" transform="translate(-66.581 -186.503)" fill="none"/>
      <path id="Trazado_174049" data-name="Trazado 174049" d="M-519.867,895.589l-4.263-4.717a6.052,6.052,0,0,1-1.366.713,6,6,0,0,1-3.493.191l-33.45,86.661Z" transform="translate(-81.283 -265.228)" fill="none"/>
      <path id="Trazado_174050" data-name="Trazado 174050" d="M-109.156,894.041l-105.251,38.331,20.042,20.853Z" transform="translate(-210.504 -266.404)" fill="none"/>
      <path id="Trazado_174051" data-name="Trazado 174051" d="M34.515,654a5.993,5.993,0,0,1-2-2.719c-.005-.015-.008-.028-.013-.043L-7.6,656.447l-22.3,2.9-75.922,9.863a6.036,6.036,0,0,1-.9,3.166l83.226,67.6Z" transform="translate(-250.488 -176.252)" fill="none"/>
      <path id="Trazado_174052" data-name="Trazado 174052" d="M-109.088,686.774a5.971,5.971,0,0,1-1.377.976l43.948,120.674a6.006,6.006,0,0,1,4.014.493l36.746-54.46Z" transform="translate(-249.098 -189.447)" fill="none"/>
      <path id="Trazado_174053" data-name="Trazado 174053" d="M-640.442,552.627a6.049,6.049,0,0,1-2.871-1.632l-100.241,75.953a6.026,6.026,0,0,1,.436.925,6.008,6.008,0,0,1,.314,1.327l93.907.613Z" transform="translate(-14.035 -139.033)" fill="none"/>
      <path id="Trazado_174054" data-name="Trazado 174054" d="M-597.624,498.4a6.012,6.012,0,0,1,1.434-.326L-593,436.615a6.027,6.027,0,0,1-1.791-.634l-31.716,43.779,26.644,20.087A5.986,5.986,0,0,1-597.624,498.4Z" transform="translate(-57.494 -96.329)" fill="none"/>
      <path id="Trazado_174055" data-name="Trazado 174055" d="M-666.476,474.292l31.7-43.753a6,6,0,0,1-1.532-2.32,6.007,6.007,0,0,1-.329-1.477l-93.463-2.967a6.064,6.064,0,0,1-.711,2.012Z" transform="translate(-18.765 -91.797)" fill="none"/>
      <path id="Trazado_174056" data-name="Trazado 174056" d="M428.29,433.536a6.055,6.055,0,0,1-.582.179l11.749,98.067a6.044,6.044,0,0,1,3.376,1.074L503.1,466.291a6.011,6.011,0,0,1-1.345-5.667l-70.327-29.712A6,6,0,0,1,428.29,433.536Z" transform="translate(-448.919 -94.447)" fill="none"/>
      <path id="Trazado_174057" data-name="Trazado 174057" d="M228.846,738.351a6.008,6.008,0,0,1-7.916-.142l-91,80.869a6.087,6.087,0,0,1,.363.606l145.544-38.132Z" transform="translate(-338.355 -208.545)" fill="none"/>
      <path id="Trazado_174058" data-name="Trazado 174058" d="M-543.5,626.694l-36.915-73.272a6.017,6.017,0,0,1-1.662.272l-8.438,77.03,44.208.289A6.039,6.039,0,0,1-543.5,626.694Z" transform="translate(-70.859 -139.934)" fill="none"/>
      <path id="Trazado_174059" data-name="Trazado 174059" d="M-745.139,609.6-644.9,533.65a6.006,6.006,0,0,1-.435-.926,6.012,6.012,0,0,1,.427-5.042l-26.619-20.068L-745.3,609.447C-745.244,609.5-745.19,609.549-745.139,609.6Z" transform="translate(-13.388 -122.926)" fill="none"/>
      <path id="Trazado_174060" data-name="Trazado 174060" d="M84.882,786.6a6.017,6.017,0,0,1,1.341-.316l.957-105.407.214-23.58a6.031,6.031,0,0,1-1.666-.429L27.579,743.044l55.215,44.847A6.007,6.007,0,0,1,84.882,786.6Z" transform="translate(-300.353 -178.342)" fill="none"/>
      <path id="Trazado_174061" data-name="Trazado 174061" d="M1024.9,539.043a6.018,6.018,0,0,1-7.13,2.688l-49.545,101.9,72.383-98.013Z" transform="translate(-649.61 -134.595)" fill="none"/>
      <path id="Trazado_174062" data-name="Trazado 174062" d="M908.821,318.016l105.1,41.393,10.64-54.725a5.952,5.952,0,0,1-4.305-4.679L935,312.8l-26.185,3.931A5.967,5.967,0,0,1,908.821,318.016Z" transform="translate(-627.549 -45.841)" fill="none"/>
      <path id="Trazado_174063" data-name="Trazado 174063" d="M1058.158,496.278a5.983,5.983,0,0,1,.73,4.835l16.062,6.727,49.548-67.092Z" transform="translate(-683.001 -98.099)" fill="none"/>
      <path id="Trazado_174064" data-name="Trazado 174064" d="M976.3,458.062a6.04,6.04,0,0,1,1.428-2.072L890.7,335.349a6,6,0,0,1-3.713,1.223l-20.657,91.411Z" transform="translate(-611.778 -58.965)" fill="none"/>
      <path id="Trazado_174065" data-name="Trazado 174065" d="M-633.7,411.825a6.027,6.027,0,0,1,3.887-4.7,6.027,6.027,0,0,1,7.546,3.167l73.132-22.513-173.884,21.211Z" transform="translate(-21.66 -78.431)" fill="none"/>
      <path id="Trazado_174066" data-name="Trazado 174066" d="M798.736,471.824c-.179.065-.359.119-.539.166l10.094,76.518,5.345,40.511c.192,0,.382.008.571.026l24.985-110.561-36.923-10.1A6.009,6.009,0,0,1,798.736,471.824Z" transform="translate(-586.479 -108.36)" fill="none"/>
      <path id="Trazado_174067" data-name="Trazado 174067" d="M563.443,477.964l95.011,67.266L705.6,470.045a5.994,5.994,0,0,1-1.755-2.522,6.115,6.115,0,0,1-.268-1.018l-139.587,9.21A6.033,6.033,0,0,1,563.443,477.964Z" transform="translate(-499.316 -107.662)" fill="none"/>
      <path id="Trazado_174068" data-name="Trazado 174068" d="M395.577,762.749,289.626,734.574a6.064,6.064,0,0,1-.687,1.286l47.722,43.875L395.575,764.3A5.979,5.979,0,0,1,395.577,762.749Z" transform="translate(-397.394 -207.195)" fill="none"/>
      <path id="Trazado_174069" data-name="Trazado 174069" d="M959.1,545.006,831.564,621.1c.048.109.1.216.14.33a5.992,5.992,0,0,1,.24,3.252l18.294,6.22Z" transform="translate(-598.868 -136.809)" fill="none"/>
      <path id="Trazado_174070" data-name="Trazado 174070" d="M460.522,883.247,431.535,787.92a6.025,6.025,0,0,1-6.578-3.679l-57.952,15.183,92.125,84.7A5.968,5.968,0,0,1,460.522,883.247Z" transform="translate(-426.38 -225.636)" fill="none"/>
      <path id="Trazado_174071" data-name="Trazado 174071" d="M597.425,656.893l-122.4,75.33c.06.133.121.266.172.406a6.028,6.028,0,0,1-3.186,7.555l28.986,95.326a6,6,0,0,1,3.117.3l94.508-177.8A6,6,0,0,1,597.425,656.893Z" transform="translate(-465.366 -178.352)" fill="none"/>
      <path id="Trazado_174072" data-name="Trazado 174072" d="M768.2,687.5a6.033,6.033,0,0,1,1.794-.359l1.484-17.543a6,6,0,0,1-4.747-5.9l-78.579-10.372c-.026.1-.057.194-.088.29l77.125,36.305A6,6,0,0,1,768.2,687.5Z" transform="translate(-545.588 -177.029)" fill="none"/>
      <path id="Trazado_174073" data-name="Trazado 174073" d="M827.463,674.075a6.022,6.022,0,0,1-5.138,3.367l-1.484,17.543a6.047,6.047,0,0,1,2.933,1.579L844.8,679.97Z" transform="translate(-594.886 -184.732)" fill="none"/>
      <path id="Trazado_174074" data-name="Trazado 174074" d="M-780.989,184.637a6.029,6.029,0,0,0,5.715,3.961l18.868,136.6c-.16.044-.319.089-.477.147a6.031,6.031,0,0,0-3.6,7.73,6.022,6.022,0,0,0,4.592,3.865L-763.3,484.9a6.03,6.03,0,0,0-1.587.341,6.03,6.03,0,0,0-3.6,7.73,6.031,6.031,0,0,0,7.73,3.6,6.009,6.009,0,0,0,2.186-1.395l83.33,64.538a6.018,6.018,0,0,0-.463,5.112,6.03,6.03,0,0,0,7.73,3.6,6.014,6.014,0,0,0,1.743-1l52.513,49.708a6.027,6.027,0,0,0-.79,5.612,6,6,0,0,0,2.791,3.23l-36.555,94.706a6,6,0,0,0-3.492.192,6.03,6.03,0,0,0-3.6,7.73,6.027,6.027,0,0,0,6.169,3.941l16.049,74.327c-.014.005-.029.008-.043.014a6.03,6.03,0,0,0-3.6,7.73,6.03,6.03,0,0,0,7.73,3.6,6.012,6.012,0,0,0,3.534-3.44l91.572,23.329a6,6,0,0,0,.316,2.788,6.031,6.031,0,0,0,7.731,3.6,6.029,6.029,0,0,0,3.6-7.73c-.043-.12-.1-.233-.146-.348l164.322-98.742.412.429.345-.884,2.676-1.608-2.123.192,41.073-105.105a6,6,0,0,0,3.518-.187,6.026,6.026,0,0,0,3.961-5.539l89.006-9.647a6.149,6.149,0,0,0,.194.648,6.031,6.031,0,0,0,7.731,3.6,6.028,6.028,0,0,0,3.835-6.889L30.614,662.634a6.029,6.029,0,1,0,9.5-4.448l94.508-177.8a6.008,6.008,0,0,0,7.194-2.395L218.94,514.3a6.027,6.027,0,1,0,11.713,2.628l77.6.124a6.033,6.033,0,1,0,11.341-3.514l115.039-79.169a6.028,6.028,0,1,0,5.7-9.929l5.931-79.864a6.01,6.01,0,0,0,5.841-7.342l81.079-21.758c.036.121.068.243.112.364a6.031,6.031,0,1,0,3.6-7.731c-.184.067-.362.144-.536.226l-20.672-39.92a6.027,6.027,0,1,0-9.317-6.268L404.645,252.81a6.029,6.029,0,0,0-12.038-.2l-17.062,2.561-94.662,14.209a6.028,6.028,0,1,0-9.753,6.578l-58.039,76.56a6.011,6.011,0,0,0-4.962-.384l-.016.007L182.4,302.905,63.6,364.353a6.025,6.025,0,0,0-10.156.392l-70.327-29.713a5.994,5.994,0,0,0-.14-3.673,6.031,6.031,0,0,0-7.731-3.6,6,6,0,0,0-3.255,2.839l-116.7-43.85a6,6,0,0,0-.2-3.44,6.03,6.03,0,0,0-7.73-3.6,6.031,6.031,0,0,0-3.6,7.731,6,6,0,0,0,2.26,2.906l-37.5,73.546a6,6,0,0,0-4.088.014,6.032,6.032,0,0,0-3.9,6.554l-189.849,53.913.212.747a6.025,6.025,0,0,0-4.234-3.794l8.594-77.176a6.008,6.008,0,0,0,1.954-.358,6.031,6.031,0,0,0,3.6-7.731,6.03,6.03,0,0,0-7.73-3.6,6.015,6.015,0,0,0-3.692,3.885L-556.038,307.8a6.006,6.006,0,0,0-.358-2.127,6.029,6.029,0,0,0-5.272-3.951l-2.827-70.958a5.977,5.977,0,0,0,.724-.209,6.03,6.03,0,0,0,3.6-7.73,6.03,6.03,0,0,0-7.73-3.6,6.008,6.008,0,0,0-3.523,3.412l-197.888-39.644a5.982,5.982,0,0,0-.347-2.476,6.03,6.03,0,0,0-7.73-3.6A6.031,6.031,0,0,0-780.989,184.637Zm7.253,3.75c.16-.044.319-.089.477-.147a6,6,0,0,0,2.7-1.975l132.972,77.961-112.4,63.181a6.039,6.039,0,0,0-4.881-2.419Zm206.169,116.892a6.015,6.015,0,0,0-.521,2.173l-180.89,22.066c-.049-.19-.107-.38-.175-.569-.023-.064-.053-.124-.079-.187l113.195-63.627ZM-387.761,343.4l-53.533,137.146a6,6,0,0,0-3.515.187,6.009,6.009,0,0,0-.611.263l-37.146-55.62,93.731-82.721A6.068,6.068,0,0,0-387.761,343.4ZM486.3,291.8,449.588,333.55a6.018,6.018,0,0,0-5.426-.668l-.032.014L402.7,257.474a6.033,6.033,0,0,0,1.1-1.351ZM253.121,494.688l112.745-88.957a6,6,0,0,0,.9.723l-50.62,104.117a6.013,6.013,0,0,0-7.323,3.056ZM-530.041,833.174a6,6,0,0,0-1.8,1.045l-48.1-44.37,80.882-37.236-27.706,80.327A6,6,0,0,0-530.041,833.174Zm-31.572-519.432,32.356,144.319a6.056,6.056,0,0,0-1.474.788L-616.279,368.3l50.568-55.767A6.035,6.035,0,0,0-561.614,313.742Zm370.163,61.491a6.045,6.045,0,0,0,.854-.4l6.745,9.157-25.686,78.068,15.716-86.471A6.005,6.005,0,0,0-191.45,375.232Zm40.623-83.839,13.382,150.178a6.1,6.1,0,0,0-.759.216,6.055,6.055,0,0,0-.854.4l-43.068-58.467,30.412-92.43A5.966,5.966,0,0,0-150.827,291.394Zm128.075,48.053L-11,437.514a5.887,5.887,0,0,0-.582.179,6.016,6.016,0,0,0-1.336.693l-53.495-59.914,40.06-40.265A6.037,6.037,0,0,0-22.752,339.447Zm181.064,99.439L139.26,469.269a6.013,6.013,0,0,0-4.583-.189,6.1,6.1,0,0,0-.816.376L63.067,371.885c.08-.087.156-.176.231-.267Zm51.865-75.064,10.156,76.985,5.284,40.053c-.172.045-.342.1-.512.157a6,6,0,0,0-2.367,1.58l-62.333-44.131,47.174-75.237A6.021,6.021,0,0,0,210.177,363.822ZM280.916,273.7l105.149,41.413L370.453,395.4a5.871,5.871,0,0,0-3.244.718L280.038,275.273A6.062,6.062,0,0,0,280.916,273.7Zm119.766-15a6.08,6.08,0,0,0,.741-.334l41.334,75.254a6,6,0,0,0-1.525,1.555l-53.4-21.031,10.711-55.084A6,6,0,0,0,400.683,258.7Zm-28.706,137L387.534,315.7l53,20.873a6.008,6.008,0,0,0,.278,4.632L374.16,396.99A6.05,6.05,0,0,0,371.977,395.7Zm-7.569,7.782c.042.114.092.221.139.33l-46.111,27.512-86.532,51.627a6.04,6.04,0,0,0-2.661-1.93l24.968-110.491L364.1,400.592A5.994,5.994,0,0,0,364.408,403.485ZM221.845,483.866a6.043,6.043,0,0,0-.5,1.266l-78.579-10.37a5.968,5.968,0,0,0-2.193-4.664l19.007-30.315ZM-210.14,608.861l50.861-106.9,40.274,21.067a6,6,0,0,0-.043,4.226,6.007,6.007,0,0,0,.617,1.226l-91.023,80.889A5.992,5.992,0,0,0-210.14,608.861Zm-1.49-105.241.224-24.694a6.041,6.041,0,0,0,1.164-.3,5.992,5.992,0,0,0,2.663-1.931l46.923,24.545-50.885,106.95a6.048,6.048,0,0,0-1.035-.242Zm-432.4,220.865a6,6,0,0,0-2.245-2.9l46.243-89.995,102.5,113.44a6.043,6.043,0,0,0-1.222,2.3l-144.917-20.71A6.018,6.018,0,0,0-644.034,724.485ZM-664.371,560.7a6.014,6.014,0,0,0-1.248-2.043l51.209-61.671a6.038,6.038,0,0,0,2.728.914l1.052,62.554-53.45,1.379A6.053,6.053,0,0,0-664.371,560.7Zm17.025-220.674a6.022,6.022,0,0,0,1.477-.79l27.475,29.083-31.242,34.453a6.064,6.064,0,0,0-2.495-1l3.187-61.408A6.056,6.056,0,0,0-647.346,340.026Zm204.468,152.4,3.575,72.667c-.078.025-.157.044-.234.072a6.088,6.088,0,0,0-1.18.586l-44.254-52.831,37.518-22.755A6.039,6.039,0,0,0-442.878,492.427ZM60.71,373.454a6.038,6.038,0,0,0,1.162-.573L132.6,470.363a6.052,6.052,0,0,0-1.545,2.37l-95.8-20.558,22.8-78.391A6,6,0,0,0,60.71,373.454ZM5.084,550.382a6,6,0,0,0-.872-.066l-7.244-59.821-5-41.292q.289-.074.574-.177a6.021,6.021,0,0,0,3.621-3.653L33.3,453.343Zm-163.7-49.822,22.4-47.081a6.021,6.021,0,0,0,2.134-.358,6.073,6.073,0,0,0,1.123-.547l17.315,67.033a6,6,0,0,0-2.632,2.055Zm44.475,18.652-17.5-67.747a6.023,6.023,0,0,0,1-1.549l55.4,44.143L-109.252,520.8A6.032,6.032,0,0,0-114.137,519.212ZM-130.171,448.3a5.977,5.977,0,0,0,.053-1.159l114.637-2.862a6.059,6.059,0,0,0,.292,1.139,6.083,6.083,0,0,0,.488,1.022l-59.291,46.628Zm116.432-.642a6.039,6.039,0,0,0,4.165,1.721l5.1,42.088L2.67,550.5c-.192.05-.384.107-.574.177a5.994,5.994,0,0,0-2.127,1.334l-72.713-57.941Zm-127.869,2.328a6.017,6.017,0,0,0,3.79,3.249l-22.171,46.6-46.792-24.476a6.011,6.011,0,0,0,.458-3.1ZM-608.166,614.7l-.886-52.737,38.956-1a6.066,6.066,0,0,0,.29,1.134,6,6,0,0,0,1.5,2.286l-37.614,51.039A6.049,6.049,0,0,0-608.166,614.7Zm-.96-117.142a6.036,6.036,0,0,0,.915-.429l40.052,58.409a6.041,6.041,0,0,0-1.972,3.87l-38.948,1-1.052-62.589A6.044,6.044,0,0,0-609.126,497.561Zm2.156-1.364a6.039,6.039,0,0,0,1.794-4.716l29.381,50.178Zm169.023,80.644,4.867,84.95a6.077,6.077,0,0,0-.947.253,6,6,0,0,0-2.082,1.288L-459.5,644.28l20.989-67.51C-438.322,576.8-438.135,576.826-437.947,576.841Zm-5.192-3.944a6.01,6.01,0,0,0,3.15,3.415l-20.8,66.912-98.223-80.02a6.051,6.051,0,0,0,.764-1.891L-443.5,571.1A6.037,6.037,0,0,0-443.14,572.9Zm-116.853-8.488,98.7,80.411-30.534,98.21a5.978,5.978,0,0,0-2.392.026L-561.3,565.346A5.975,5.975,0,0,0-559.993,564.409Zm70.064,179.324c-.136-.079-.276-.151-.418-.22l30.355-97.635,22.906,18.66a6.016,6.016,0,0,0-.544,5.237,5.989,5.989,0,0,0,1.462,2.251L-451.2,692.074Zm58.4-82.033-4.832-84.946a6.05,6.05,0,0,0,.951-.254,6,6,0,0,0,3.261-2.85l31.314,13.832-29.638,74.387A6.067,6.067,0,0,0-431.528,661.7Zm-.073-89.505a6,6,0,0,0-.206-3.425,6,6,0,0,0-.958-1.7L-365.93,497.8a6.057,6.057,0,0,0,.66.422l-34.989,87.82Zm63.6-77.176a6,6,0,0,0,.946,1.684l-67.087,69.109a6.01,6.01,0,0,0-.9-.492l22.388-76.1,44.292,3.973A6.033,6.033,0,0,0-368,495.018Zm-73.9,71.732a6.052,6.052,0,0,0-1.455,2.8l-114.752-9.786a6.044,6.044,0,0,0-.359-1.8c-.047-.128-.1-.248-.157-.371l72.314-43.86Zm-117.525-10.482a6.011,6.011,0,0,0-1.843-1.536l32.666-85.144a6,6,0,0,0,3.482-.194,6.068,6.068,0,0,0,1.179-.585l36.625,43.723Zm27.09-95.672-115-50.951a6,6,0,0,0-.049-3.975,6.02,6.02,0,0,0-1.095-1.86l31.157-34.36,85.466,90.467A6.069,6.069,0,0,0-532.341,460.6Zm-115.677-49.555,115.051,50.975a6,6,0,0,0,.11,3.774,6,6,0,0,0,2.8,3.236l-32.666,85.144a6,6,0,0,0-3.481.194c-.1.035-.189.08-.284.119l-83.059-141.851A6.012,6.012,0,0,0-648.018,411.042Zm40.136,75.817a6.013,6.013,0,0,0-5.053-.729l-28.517-56.6Zm-56.162,76.526,53.44-1.378.886,52.717a6.009,6.009,0,0,0-1.187.3,5.988,5.988,0,0,0-1.742.995l-52.513-49.708A6.047,6.047,0,0,0-664.045,563.384Zm60.87,55.242a5.993,5.993,0,0,0-1.5-2.285l35.429-48.076-31.149,60.62-3.867-4.28A6.024,6.024,0,0,0-603.175,618.627Zm36.994-52.923a6,6,0,0,0,3.427.193l66.938,177.315-.185.536c-.132.077-.259.161-.384.247L-599.278,630.117Zm139.566,99.232a6,6,0,0,0-2.416-2.49l29.617-74.338,79.337,35.044a5.991,5.991,0,0,0-.1,3.02Zm107.162-43.2-79.386-35.066L-363.83,498.8a5.988,5.988,0,0,0,2.808.038l43.949,120.674A6,6,0,0,0-319.453,621.732Zm211.738-98.6a6.023,6.023,0,0,0-.549-1.127L-74,495.053l73,58.169a6.115,6.115,0,0,0-.415.833l-105.98-28.183A6,6,0,0,0-107.715,523.128ZM6.573,550.82l28.252-97.15,95.91,20.581a6,6,0,0,0,.339,2.561c.051.14.112.273.172.407L8.842,552.547A6.019,6.019,0,0,0,6.573,550.82ZM56.542,373.435l-22.8,78.414-37.255-8a6,6,0,0,0-.339-2.558,5.991,5.991,0,0,0-1.081-1.844l60.311-66.606A6.089,6.089,0,0,0,56.542,373.435Zm-70.624,65.981a6.05,6.05,0,0,0-1.432,3.316l-76.258,1.9-38.638.964c-.023-.07-.039-.14-.065-.21a6.036,6.036,0,0,0-.9-1.628l63.859-64.188ZM-140.311,443.1a6.031,6.031,0,0,0-1.762,5.408l-64.63,22.242a6.006,6.006,0,0,0-3-3.225l26.98-82Zm-78,30.359-101.435,13.178-36.763,4.776c-.047-.175-.1-.35-.162-.524a6.029,6.029,0,0,0-7.654-3.626l-27.518-54.829a6.007,6.007,0,0,0,2.554-2.78l170.957,43.026A5.984,5.984,0,0,0-218.312,473.46Zm-174.975-40.441,27.576,54.944a6.035,6.035,0,0,0-2.509,3.684l-43.987-3.946,16.077-54.65A5.989,5.989,0,0,0-393.286,433.019Zm-43.244,131.859a6.008,6.008,0,0,0-1.232-.07l-3.569-72.544a6,6,0,0,0,.651-.194,6.024,6.024,0,0,0,3.926-5.011l22.525,2.021Zm-11.881-76.411c.047.127.1.248.156.37l-37.724,22.881-36.779-43.907a6.045,6.045,0,0,0,1.135-1.785l72.9,19.576A5.989,5.989,0,0,0-448.411,488.467Zm-168.937-121.3-27.394-29a6.03,6.03,0,0,0,1.273-4.827L-567.643,310a6.039,6.039,0,0,0,.826,1.439Zm-26.579-35.306a6.027,6.027,0,0,0-7.546-3.167,6.027,6.027,0,0,0-3.887,4.7l-89.318-2.836L-570.8,309.347Zm-104.941.119,93.463,2.967a6.007,6.007,0,0,0,.329,1.477,6,6,0,0,0,1.532,2.32l-31.7,43.753-64.338-48.5A6.064,6.064,0,0,0-748.868,331.978Zm96.583,7.674a6.026,6.026,0,0,0,1.791.634l-3.189,61.457a6.011,6.011,0,0,0-1.434.326,5.986,5.986,0,0,0-2.239,1.45L-684,383.431Zm-6.008,65.1a6.012,6.012,0,0,0-.427,5.042,6.006,6.006,0,0,0,.435.926l-100.241,75.953c-.052-.053-.1-.1-.159-.156l73.774-101.833Zm-98.86,84.085a6.02,6.02,0,0,0-.436-.925l100.241-75.953a6.049,6.049,0,0,0,2.871,1.632l-8.455,77.186-93.907-.613A6,6,0,0,0-757.154,488.841Zm104.221-75.081a6.021,6.021,0,0,0,1.662-.272l36.915,73.272a6.038,6.038,0,0,0-2.807,4.319l-44.208-.289Zm35.762,78.871a6.008,6.008,0,0,0,.315,1.327A6.014,6.014,0,0,0-615.609,496l-51.209,61.671a6.051,6.051,0,0,0-1.8-.767l7.073-64.562Zm10.393,133.726a6.053,6.053,0,0,0,1.366-.713l4.263,4.717-42.571,82.848,33.45-86.661A6,6,0,0,0-606.778,626.357Zm-37.117,101.8,144.917,20.71a6,6,0,0,0,.275,1.87l-82.472,37.967-63.6-58.676A6.076,6.076,0,0,0-643.9,728.162Zm155.2,16.52,53.772-71.723a6.016,6.016,0,0,0,5.028.419,6.028,6.028,0,0,0,3.931-6.269l19.808,20.61L-488.486,744.9C-488.555,744.824-488.627,744.753-488.7,744.682Zm63.787-78.713,105.252-38.332-85.209,59.185Zm109.3-46.991L-359.563,498.3a5.972,5.972,0,0,0,1.377-.976l83.331,67.685-36.746,54.46A6.006,6.006,0,0,0-315.614,618.978ZM-357.209,496.12a6.036,6.036,0,0,0,.9-3.166l75.922-9.863,22.3-2.9,40.106-5.211c.005.014.008.028.013.043a5.994,5.994,0,0,0,2,2.719l-58.011,85.974Zm142.583-17.6a6.031,6.031,0,0,0,1.666.429l-.214,23.58-.957,105.408a6.018,6.018,0,0,0-1.341.316,6.007,6.007,0,0,0-2.088,1.294L-272.774,564.7Zm6.2,132.01,91-80.869a6.029,6.029,0,0,0,6.107,1.193,6,6,0,0,0,1.809-1.051l46.989,43.2L-208.063,611.14A6.088,6.088,0,0,0-208.426,610.534Zm99.97-81.869a6.062,6.062,0,0,0,.687-1.286L-1.817,555.554a5.979,5.979,0,0,0,0,1.55L-60.733,572.54ZM-1.423,558.6a6.026,6.026,0,0,0,6.578,3.679l28.986,95.327a5.97,5.97,0,0,0-1.392.875l-92.125-84.7Zm37.048,98.552L6.64,561.831a6.028,6.028,0,0,0,3.186-7.555c-.051-.14-.112-.272-.172-.406l122.4-75.33a6,6,0,0,0,1.191,1.122L38.742,657.46A6,6,0,0,0,35.626,657.157ZM142.565,476.3l78.579,10.372a6,6,0,0,0,4.747,5.9l-1.484,17.543a6.016,6.016,0,0,0-4.805,2.779L142.477,476.59C142.508,476.494,142.539,476.4,142.565,476.3Zm83.388,33.954,1.484-17.543a6.022,6.022,0,0,0,5.138-3.367l17.34,5.9-21.03,16.593A6.047,6.047,0,0,0,225.954,510.253Zm7.121-22.381a5.992,5.992,0,0,0-.24-3.252c-.042-.114-.092-.221-.14-.33L360.234,408.2l-108.865,85.9ZM368.16,407.136a6.018,6.018,0,0,0,7.129-2.688L391,411.027,318.615,509.04Zm7.727-4.122a5.983,5.983,0,0,0-.73-4.835l66.339-55.53-49.548,67.092ZM392.7,254.163a5.952,5.952,0,0,0,4.305,4.679l-10.64,54.725-105.1-41.393a5.967,5.967,0,0,0-.01-1.284l26.185-3.931ZM277.34,277.249a6.04,6.04,0,0,0,1.586-.865l87.02,120.641a6.039,6.039,0,0,0-1.428,2.072L254.555,369.018l20.657-91.411A6.005,6.005,0,0,0,277.34,277.249ZM227.729,480.685c-.189-.018-.38-.026-.571-.026l-5.345-40.511L211.718,363.63c.18-.047.36-.1.539-.166a6.009,6.009,0,0,0,3.533-3.44l36.923,10.1Zm-23.2-120.824a5.994,5.994,0,0,0,1.755,2.522l-47.143,75.185L64.127,370.3a6.033,6.033,0,0,0,.545-2.249l139.587-9.21A6.119,6.119,0,0,0,204.527,359.861ZM52.98,369.851a6.013,6.013,0,0,0,1.205,1.993L-6.086,438.408a6.044,6.044,0,0,0-3.376-1.074l-11.749-98.067a6.055,6.055,0,0,0,.582-.179,6,6,0,0,0,3.142-2.624L52.84,366.177A6,6,0,0,0,52.98,369.851Zm-81.339-34.365a6.007,6.007,0,0,0,.9,1.628l-39.992,40.2-78.571-88a6.057,6.057,0,0,0,.758-1.115l116.7,43.85A6,6,0,0,0-28.359,335.486Zm-40.19,42.928-63.927,64.256a6.045,6.045,0,0,0-3.423-1.24l-13.382-150.178a6.139,6.139,0,0,0,.761-.216,6.015,6.015,0,0,0,1.336-.693Zm-114.707,3.769-6.088-8.264a6.029,6.029,0,0,0,1.5-6.417,5.994,5.994,0,0,0-2.261-2.907l35.634-69.888Zm-12.091-6.878L-212,466.938a6.02,6.02,0,0,0-2.37.358,6.015,6.015,0,0,0-3.682,3.855l-170.785-42.983a5.988,5.988,0,0,0-.066-2.309l189.855-53.915A6.011,6.011,0,0,0-195.346,375.305Zm-202.242,57.2-16.2,55.052-23-2.063a6.019,6.019,0,0,0-.3-1.157,5.991,5.991,0,0,0-1.416-2.207l40.34-49.962A6,6,0,0,0-397.588,432.508Zm-49.121,49.356a6.025,6.025,0,0,0-1.6,2.239l-72.9-19.575a6.007,6.007,0,0,0-.309-2.865,6.016,6.016,0,0,0-.673-1.308l38.457-33.94Zm-76.512-22.676a6.038,6.038,0,0,0-4.52-1.46l-32.352-144.3c.031-.011.062-.018.094-.029a6.051,6.051,0,0,0,.606-.261l74.783,111.974ZM-754.343,337.019a6.006,6.006,0,0,0,1.587-.34,6,6,0,0,0,2.24-1.45l64.362,48.525-73.792,101.858a6.061,6.061,0,0,0-1.8-.636Zm-3.274,156.934a6.058,6.058,0,0,0,.77-2.233l93.744.612-7.056,64.406a6.013,6.013,0,0,0-1.943.359,6,6,0,0,0-2.185,1.394Zm109.936,238.276c.014-.006.029-.008.043-.014a6,6,0,0,0,1.8-1.045l63.133,58.241-43.32,19.943a6.032,6.032,0,0,0-5.609-2.8Zm22.535,81.055a6,6,0,0,0-.233-2.516l43.912-20.215,48.569,44.805a6.1,6.1,0,0,0-.677,1.256ZM-523.254,835.1a6.027,6.027,0,0,0-2.041-1.652l27.784-80.555a6.028,6.028,0,0,0,6.621,1.725,6.028,6.028,0,0,0,3.961-5.433l125.621-11.4Zm36.18-87.461a6,6,0,0,0-.214-.751,6.071,6.071,0,0,0-.316-.707l82.532-57.325,45.386,47.224Zm83.293-59.68,85.014-59.049a6.032,6.032,0,0,0,1.57,1.234l-41.09,105.15Zm95.341-64.514a6.185,6.185,0,0,0-.193-.648,6.015,6.015,0,0,0-1.678-2.46l36.665-54.339,55.109,44.763a6.039,6.039,0,0,0-.9,3.037Zm104.08-11.667,143.2-37.517L31.7,659.627a6.055,6.055,0,0,0-.766,1.487Zm435.014-96.4a6.032,6.032,0,0,0-.312-1.3,6.118,6.118,0,0,0-.492-1.03l21.817-17.214L308.324,515.1c-.027.134-.052.267-.07.4Zm88.059-3.118c-.1-.11-.2-.214-.311-.316l74.069-100.3,40.831,17.1a5.911,5.911,0,0,0,.449,4.341Zm120.07-87.938a6.024,6.024,0,0,0-4.883,3l-40.479-16.955L442.795,343.5a6.072,6.072,0,0,0,1.926.884Zm13.109-87.829,0,0a5.991,5.991,0,0,0-1.137-1.911L487.8,292.451l45.383,19.628a6.017,6.017,0,0,0-.245,1.855l-81.246,21.8Zm81.91-25.833-44.928-19.431,20.015-22.76a6.017,6.017,0,0,0,5.423.668l20.741,40.055A6,6,0,0,0,533.8,310.656Zm-27.576-46.964a5.991,5.991,0,0,0,1.5,3.749l-20.346,23.136L404.411,254.7c.033-.113.063-.226.089-.34ZM272.385,276.868a6.052,6.052,0,0,0,1.285.522l-20.614,91.219-36.88-10.088a5.985,5.985,0,0,0-1.833-5.092ZM181.739,305l25,47.865a6.037,6.037,0,0,0-2.551,4.431L64.534,366.506a6.065,6.065,0,0,0-.218-.776ZM-394.893,421.152a6.01,6.01,0,0,0-1.954.359,6.031,6.031,0,0,0-3.6,7.731,5.994,5.994,0,0,0,1.129,1.9l-40.4,50.042c-.04-.023-.084-.043-.124-.065l53.532-137.147.018,0Zm4-83.285a6.013,6.013,0,0,0,.358,2.316,6.021,6.021,0,0,0,.673,1.308l-93.577,82.586-74.667-111.8a6.044,6.044,0,0,0,1.85-2.941ZM-563.217,301.82a6,6,0,0,0-.909.246,5.991,5.991,0,0,0-2.629,1.889l-67.715-39.7,63.753-35.836a6.038,6.038,0,0,0,4.674,2.492Zm-8.6-77.686a6,6,0,0,0,.314,2.814c.013.036.03.069.044.1l-64.564,36.292-133.755-78.42c.058-.138.114-.276.162-.417Z" transform="translate(0 0)"/>
    </g>
  </g>
</svg>
