<svg xmlns="http://www.w3.org/2000/svg" xmlns:xlink="http://www.w3.org/1999/xlink" width="246" height="198" viewBox="0 0 246 198">
  <defs>
    <filter id="Rectángulo_37253" x="0" y="0" width="246" height="198" filterUnits="userSpaceOnUse">
      <feOffset dy="3" input="SourceAlpha"/>
      <feGaussianBlur stdDeviation="3" result="blur"/>
      <feFlood flood-opacity="0.161"/>
      <feComposite operator="in" in2="blur"/>
      <feComposite in="SourceGraphic"/>
    </filter>
  </defs>
  <g id="Grupo_143201" data-name="Grupo 143201" transform="translate(-549 -3248)">
    <g transform="matrix(1, 0, 0, 1, 549, 3248)" filter="url(#Rectángulo_37253)">
      <rect id="Rectángulo_37253-2" data-name="Rectángulo 37253" width="228" height="180" rx="10" transform="translate(9 6)" fill="#fff"/>
    </g>
    <path id="Trazado_183725" data-name="Trazado 183725" d="M33.973,11.211A4.025,4.025,0,0,1,32.617,14.1a4.76,4.76,0,0,1-3.223,1.055,4.28,4.28,0,0,1-3.441-1.473A6.038,6.038,0,0,1,24.7,9.641v-.7a6.819,6.819,0,0,1,.578-2.891A4.332,4.332,0,0,1,26.93,4.137a4.629,4.629,0,0,1,2.5-.668A4.637,4.637,0,0,1,32.6,4.523a4.326,4.326,0,0,1,1.391,2.961H31.645a2.376,2.376,0,0,0-.613-1.6,2.271,2.271,0,0,0-1.605-.5,1.991,1.991,0,0,0-1.754.84,4.707,4.707,0,0,0-.6,2.605V9.7a5.038,5.038,0,0,0,.559,2.7,1.954,1.954,0,0,0,1.762.852,2.314,2.314,0,0,0,1.621-.5,2.241,2.241,0,0,0,.613-1.535Zm6.453,2.93a2.831,2.831,0,0,1-2.312,1.016,2.67,2.67,0,0,1-2.074-.781,3.335,3.335,0,0,1-.73-2.289V6.547h2.258v5.467q0,1.322,1.2,1.322a1.63,1.63,0,0,0,1.578-.8V6.547h2.266V15H40.488Zm7.781,1.016a4.15,4.15,0,0,1-3.027-1.141,4.054,4.054,0,0,1-1.168-3.039v-.219A5.106,5.106,0,0,1,44.5,8.48,3.612,3.612,0,0,1,45.9,6.934a3.914,3.914,0,0,1,2.059-.543,3.508,3.508,0,0,1,2.73,1.094,4.444,4.444,0,0,1,1,3.1v.922H46.3a2.1,2.1,0,0,0,.66,1.328,2,2,0,0,0,1.395.5,2.437,2.437,0,0,0,2.039-.945L51.5,13.633a3.389,3.389,0,0,1-1.375,1.121A4.511,4.511,0,0,1,48.207,15.156Zm-.258-6.945a1.411,1.411,0,0,0-1.09.455,2.357,2.357,0,0,0-.535,1.3h3.141V9.788a1.681,1.681,0,0,0-.406-1.165A1.456,1.456,0,0,0,47.949,8.211Zm9.766.453A6.134,6.134,0,0,0,56.9,8.6a1.654,1.654,0,0,0-1.68.867V15H52.965V6.547H55.1l.063,1.008a2.092,2.092,0,0,1,1.883-1.164,2.366,2.366,0,0,1,.7.1Zm8.7,2.188a5.07,5.07,0,0,1-.887,3.129,2.843,2.843,0,0,1-2.395,1.176,2.633,2.633,0,0,1-2.07-.891V18.25H58.8V6.547h2.094l.078.828a2.654,2.654,0,0,1,2.141-.984,2.862,2.862,0,0,1,2.43,1.156,5.207,5.207,0,0,1,.867,3.188Zm-2.258-.172a3.345,3.345,0,0,0-.418-1.826,1.36,1.36,0,0,0-1.215-.643,1.478,1.478,0,0,0-1.461.815V12.5a1.5,1.5,0,0,0,1.477.839Q64.152,13.336,64.152,10.679Zm3.3.016a5.013,5.013,0,0,1,.484-2.242A3.546,3.546,0,0,1,69.336,6.93a4.069,4.069,0,0,1,2.113-.539,3.849,3.849,0,0,1,2.793,1.047,4.2,4.2,0,0,1,1.207,2.844l.016.578a4.418,4.418,0,0,1-1.086,3.121,4.209,4.209,0,0,1-5.832,0,4.5,4.5,0,0,1-1.09-3.187Zm2.258.16a3.16,3.16,0,0,0,.453,1.843,1.628,1.628,0,0,0,2.578.008,3.457,3.457,0,0,0,.461-2.015,3.128,3.128,0,0,0-.461-1.831,1.5,1.5,0,0,0-1.3-.649,1.474,1.474,0,0,0-1.281.646A3.516,3.516,0,0,0,69.715,10.856Zm10.773-.145a5.094,5.094,0,0,1,.887-3.148A2.877,2.877,0,0,1,83.8,6.391a2.589,2.589,0,0,1,2.039.922V3h2.266V15H86.066l-.109-.9a2.657,2.657,0,0,1-2.172,1.055,2.869,2.869,0,0,1-2.395-1.176A5.258,5.258,0,0,1,80.488,10.711Zm2.258.161A3.355,3.355,0,0,0,83.16,12.7a1.348,1.348,0,0,0,1.2.636,1.51,1.51,0,0,0,1.477-.887V9.1a1.489,1.489,0,0,0-1.461-.887Q82.746,8.211,82.746,10.872Zm11,4.285a4.15,4.15,0,0,1-3.027-1.141,4.054,4.054,0,0,1-1.168-3.039v-.219a5.106,5.106,0,0,1,.492-2.277,3.612,3.612,0,0,1,1.395-1.547A3.914,3.914,0,0,1,93.5,6.391a3.508,3.508,0,0,1,2.73,1.094,4.444,4.444,0,0,1,1,3.1v.922H91.84a2.1,2.1,0,0,0,.66,1.328,2,2,0,0,0,1.395.5,2.437,2.437,0,0,0,2.039-.945l1.109,1.242a3.389,3.389,0,0,1-1.375,1.121A4.511,4.511,0,0,1,93.746,15.156Zm-.258-6.945a1.411,1.411,0,0,0-1.09.455,2.357,2.357,0,0,0-.535,1.3H95V9.788A1.681,1.681,0,0,0,94.6,8.623,1.456,1.456,0,0,0,93.488,8.211ZM106,13.336a1.481,1.481,0,0,0,1.016-.344,1.2,1.2,0,0,0,.406-.914h2.117a2.9,2.9,0,0,1-.469,1.574,3.093,3.093,0,0,1-1.262,1.109,3.949,3.949,0,0,1-1.77.395A3.67,3.67,0,0,1,103.184,14a4.56,4.56,0,0,1-1.047-3.184v-.148a4.508,4.508,0,0,1,1.039-3.117,3.627,3.627,0,0,1,2.852-1.164,3.555,3.555,0,0,1,2.543.9,3.2,3.2,0,0,1,.973,2.4h-2.117a1.551,1.551,0,0,0-.406-1.072,1.51,1.51,0,0,0-2.223.163,3.333,3.333,0,0,0-.4,1.866v.235a3.375,3.375,0,0,0,.4,1.878A1.377,1.377,0,0,0,106,13.336ZM110.48,10.7a5.013,5.013,0,0,1,.484-2.242,3.546,3.546,0,0,1,1.395-1.523,4.069,4.069,0,0,1,2.113-.539,3.849,3.849,0,0,1,2.793,1.047,4.2,4.2,0,0,1,1.207,2.844l.016.578A4.418,4.418,0,0,1,117.4,13.98a4.209,4.209,0,0,1-5.832,0,4.5,4.5,0,0,1-1.09-3.187Zm2.258.16a3.16,3.16,0,0,0,.453,1.843,1.628,1.628,0,0,0,2.578.008,3.457,3.457,0,0,0,.461-2.015,3.128,3.128,0,0,0-.461-1.831,1.5,1.5,0,0,0-1.3-.649,1.474,1.474,0,0,0-1.281.646A3.516,3.516,0,0,0,112.738,10.856ZM122.262,15H120V3h2.266Zm4.242,0h-2.266V6.547H126.5Zm-2.4-10.641a1.112,1.112,0,0,1,.34-.836,1.465,1.465,0,0,1,1.848,0,1.105,1.105,0,0,1,.344.836,1.108,1.108,0,0,1-.348.844,1.448,1.448,0,0,1-1.836,0A1.108,1.108,0,0,1,124.105,4.359Zm8.836,8.3a.727.727,0,0,0-.41-.652,4.659,4.659,0,0,0-1.316-.426q-3.016-.633-3.016-2.562a2.323,2.323,0,0,1,.934-1.879,3.766,3.766,0,0,1,2.441-.754,4.053,4.053,0,0,1,2.574.758,2.388,2.388,0,0,1,.965,1.969h-2.258a1.092,1.092,0,0,0-.312-.8A1.322,1.322,0,0,0,131.566,8a1.351,1.351,0,0,0-.883.258.814.814,0,0,0-.312.656.7.7,0,0,0,.355.605,3.657,3.657,0,0,0,1.2.4,9.8,9.8,0,0,1,1.422.379,2.336,2.336,0,0,1,1.789,2.273,2.205,2.205,0,0,1-.992,1.871,4.28,4.28,0,0,1-2.562.715,4.47,4.47,0,0,1-1.887-.379,3.166,3.166,0,0,1-1.293-1.039,2.414,2.414,0,0,1-.469-1.426h2.141a1.179,1.179,0,0,0,.445.922,1.766,1.766,0,0,0,1.109.32,1.635,1.635,0,0,0,.98-.246A.766.766,0,0,0,132.941,12.664ZM138.973,15h-2.266V6.547h2.266Zm-2.4-10.641a1.112,1.112,0,0,1,.34-.836,1.465,1.465,0,0,1,1.848,0,1.105,1.105,0,0,1,.344.836,1.109,1.109,0,0,1-.348.844,1.448,1.448,0,0,1-1.836,0A1.109,1.109,0,0,1,136.574,4.359ZM140.48,10.7a5.013,5.013,0,0,1,.484-2.242,3.546,3.546,0,0,1,1.395-1.523,4.069,4.069,0,0,1,2.113-.539,3.849,3.849,0,0,1,2.793,1.047,4.2,4.2,0,0,1,1.207,2.844l.016.578A4.418,4.418,0,0,1,147.4,13.98a4.209,4.209,0,0,1-5.832,0,4.5,4.5,0,0,1-1.09-3.187Zm2.258.16a3.16,3.16,0,0,0,.453,1.843,1.628,1.628,0,0,0,2.578.008,3.457,3.457,0,0,0,.461-2.015,3.128,3.128,0,0,0-.461-1.831,1.5,1.5,0,0,0-1.3-.649,1.474,1.474,0,0,0-1.281.646A3.516,3.516,0,0,0,142.738,10.856ZM144.918,3h2.461l-2.164,2.422h-1.836Zm7.039,3.547.07.977a2.951,2.951,0,0,1,2.43-1.133,2.453,2.453,0,0,1,2,.789,3.682,3.682,0,0,1,.672,2.359V15h-2.258V9.581a1.47,1.47,0,0,0-.312-1.045,1.4,1.4,0,0,0-1.039-.325,1.553,1.553,0,0,0-1.43.814V15h-2.258V6.547Z" transform="translate(576 3371)" fill="#12263f"/>
    <g id="Grupo_142439" data-name="Grupo 142439" transform="translate(129 -2557)">
      <circle id="Elipse_4868" data-name="Elipse 4868" cx="43" cy="43" r="43" transform="translate(500 5830)" fill="#0f1027"/>
      <g id="Grupo_143037" data-name="Grupo 143037" transform="translate(4712.149 6793.296)">
        <g id="ljTjMV" transform="translate(-4196.801 -936.748)">
          <g id="Grupo_143035" data-name="Grupo 143035" transform="translate(0 0)">
            <path id="Trazado_183668" data-name="Trazado 183668" d="M-4196.783-842.926q0-12.609-.006-25.217c0-1.64-.222-1.643,1.651-2.188,7.42-2.158,14.835-4.335,22.258-6.483a2.467,2.467,0,0,1,1.3-.029q11.459,3.313,22.9,6.677c1.172.343,1.283.6.874,1.74a2.368,2.368,0,0,0-.057.786q.009,11.846.023,23.692c0,.692-.032,1.385.016,2.074a.957.957,0,0,1-.6,1.079c-1.018.406-2.042.8-3.077,1.159q-10.1,3.514-20.2,7.021a2.38,2.38,0,0,1-1.71-.016c-4.272-1.558-8.553-3.091-12.832-4.633q-4.212-1.519-8.423-3.045c-.4-.145-.8-.29-1.2-.442-.6-.23-1.02-.586-.93-1.318A7.054,7.054,0,0,0-4196.783-842.926Zm25.181,8.231c.28-.079.476-.124.664-.189q10.009-3.472,20.016-6.948c1.21-.42,1.21-.426,1.209-1.677q-.015-11.782-.034-23.563c0-.2-.017-.4-.03-.672-.29.075-.521.129-.75.2q-10.256,3-20.514,5.98c-.478.138-.57.365-.57.816q.019,12.669.009,25.339Zm-23.253-33.145c-.015.236-.028.356-.029.477q-.073,12.208-.127,24.415a.891.891,0,0,0,.387.653,7.533,7.533,0,0,0,1.193.428q2.9,1.042,5.791,2.091,6.729,2.43,13.459,4.858c.2.071.405.113.645.178.021-.185.043-.284.043-.383q0-13.005.011-26.01c0-.407-.181-.518-.505-.613-1.4-.41-2.8-.845-4.2-1.254q-6.541-1.905-13.084-3.8Zm42.83-1.285c-.328-.123-.486-.193-.65-.242q-9.538-2.794-19.081-5.574a1.669,1.669,0,0,0-.882.011q-8.724,2.526-17.439,5.082c-.719.21-1.434.432-2.262.681a3.439,3.439,0,0,0,.384.187q6.261,1.876,12.524,3.744c1.775.526,3.557,1.037,5.346,1.517a4.154,4.154,0,0,0,1.922.293c3.146-.814,6.261-1.746,9.387-2.636q2.911-.829,5.824-1.654C-4155.368-868.167-4153.785-868.622-4152.025-869.125Z" transform="translate(4196.801 876.917)" fill="#fff"/>
          </g>
        </g>
        <path id="Path_183628" data-name="Path 183628" d="M-3881.062-941.867l-5.592-3.23v6.458Z" transform="translate(-294.169 0)" fill="#fff"/>
        <rect id="Rectángulo_42299" data-name="Rectángulo 42299" width="8.726" height="3.482" transform="translate(-4188.905 -943.603)" fill="#fff"/>
        <path id="Path_183628-2" data-name="Path 183628" d="M-3881.062-941.867l-5.592-3.23v6.458Z" transform="translate(-8048.967 -1883.735) rotate(180)" fill="#fff"/>
        <rect id="Rectángulo_42300" data-name="Rectángulo 42300" width="8.726" height="3.482" transform="translate(-4154.23 -940.133) rotate(180)" fill="#fff"/>
        <rect id="Rectángulo_42301" data-name="Rectángulo 42301" width="2" height="8" rx="1" transform="translate(-4172.149 -946.296)" fill="#fff"/>
      </g>
    </g>
  </g>
</svg>
